<?xml version="1.0" encoding="utf-8"?>
<!-- Generated by IcoMoon.io -->
<!DOCTYPE svg PUBLIC "-//W3C//DTD SVG 1.1//EN" "http://www.w3.org/Graphics/SVG/1.1/DTD/svg11.dtd">
<svg version="1.1" xmlns="http://www.w3.org/2000/svg" xmlns:xlink="http://www.w3.org/1999/xlink" width="16" height="32" viewBox="0 0 16 32">
<path fill="#444444" d="M11.535 5.567c0.078-0.426 0.202-0.891 0.38-1.419 0.312-0.928 0.859-1.4 1.627-1.4 0.117 0 0.24 0.012 0.367 0.035 1.531 0.275 1.469 1.761 1.446 2.319-0.002 0.044-0.003 0.084-0.004 0.121-0.008 0.268-0.063 0.756-0.152 1.381 0.691-0.475 1.143-1.264 1.143-2.158 0-1.453-1.191-2.629-2.659-2.629s-2.659 1.177-2.659 2.629c0 0.541 0.166 1.044 0.45 1.462 0.024-0.136 0.045-0.251 0.062-0.341v0 0z"></path>
<path fill="#444444" d="M6.249 4.15c-0.008-0.504-0.016-0.979 0.14-1.634 0.23-0.966 0.984-1.615 1.88-1.615 0.822 0 1.731 0.607 1.912 1.964 0.083 0.624 0.113 0.961 0.122 1.397 0.36-0.449 0.576-1.016 0.576-1.633 0-1.452-1.191-2.629-2.659-2.629s-2.659 1.177-2.659 2.629c0 0.681 0.262 1.302 0.692 1.768-0.001-0.084-0.002-0.168-0.003-0.248v0z"></path>
<path fill="#444444" d="M1.023 6.040c-0.080-0.482-0.143-0.942-0.146-1.578-0.006-1.15 0.607-2.067 1.49-2.23 0.13-0.024 0.259-0.037 0.384-0.037 0.609 0 1.7 0.307 2.166 2.363 0.045 0.199 0.087 0.391 0.126 0.578 0.177-0.352 0.276-0.748 0.276-1.167 0-1.452-1.191-2.629-2.659-2.629s-2.659 1.177-2.659 2.629c-0.001 0.842 0.4 1.59 1.022 2.072v0z"></path>
<path fill="#444444" d="M15.989 19.364c-0.167-0.918-0.493-1.328-0.867-2.225-0.296-0.713-0.866-1.123-1.49-1.565-0.13-0.092-0.247-0.184-0.282-0.29-0.091-0.272 0.072-1.052 0.126-1.375 0.093-0.549 1.356-7.41 1.39-8.699 0.013-0.52 0.163-1.741-1.045-1.958-0.769-0.137-1.187 0.269-1.448 1.045-0.147 0.437-0.28 0.901-0.363 1.354-0.223 1.217-1.247 6.979-1.378 7.616-0.042 0.205-0.198 1.271-0.464 1.267-0.109-0.008-0.106-0.215-0.105-0.236 0.008-0.544-0.242-7.266-0.242-9.599 0-0.685-0.016-0.988-0.12-1.773-0.273-2.046-2.443-1.98-2.842-0.302-0.176 0.74-0.124 1.22-0.124 1.884 0 1.405 0.105 5.368 0.105 7.755 0 0.339-0.009 1.514-0.391 1.318-0.251-0.129-0.289-0.689-0.349-0.924-0.207-0.82-1.009-4.812-1.241-5.96-0.072-0.362-0.217-1.16-0.417-2.037-0.323-1.427-1-2.143-1.989-1.961-0.595 0.11-1.1 0.794-1.095 1.759 0.004 0.881 0.126 1.389 0.259 2.207 0.121 0.75 1.036 5.575 1.196 6.716 0.121 0.87-0.425 1.605-0.904 1.98-0.362 0.284-0.541 0.717-0.616 1.156-0.152 0.877-0.174 1.092-0.351 2.31-0.132 0.904-0.18 2.205 0.022 3.107 0.426 1.901 2.093 3.306 3.115 4.898 0.505 0.787 1.052 1.638 1.052 2.567 0 0.399 0 2.099 0 2.099 0 0.447 0.366 0.813 0.819 0.813h7.267c0.452 0 0.823-0.366 0.823-0.813 0 0 0-0.663 0-0.699 0-1.894-0.104-2.213 0.955-5.192 0.51-1.433 1.075-3.113 1.060-4.705 0.026-0.141 0.006-1.149-0.065-1.539v0h-0.001zM8.898 28.492l-2.541-5.305h1.5v-4.895h2.083v4.895h1.501l-2.542 5.305z"></path>
</svg>
