<?xml version="1.0" encoding="utf-8"?>
<!-- Generated by IcoMoon.io -->
<!DOCTYPE svg PUBLIC "-//W3C//DTD SVG 1.1//EN" "http://www.w3.org/Graphics/SVG/1.1/DTD/svg11.dtd">
<svg version="1.1" xmlns="http://www.w3.org/2000/svg" xmlns:xlink="http://www.w3.org/1999/xlink" width="17" height="32" viewBox="0 0 17 32">
<path fill="#444444" d="M2.202 1.369c0.381-0.518 0.99-0.828 1.629-0.828 0.665 0 1.277 0.333 1.638 0.89 0.259 0.4 0.4 1.007 0.475 1.713 0.114-0.269 0.177-0.565 0.177-0.874 0-1.254-1.028-2.27-2.296-2.27s-2.297 1.017-2.297 2.27c0 0.27 0.048 0.53 0.136 0.771 0.083-0.692 0.241-1.269 0.538-1.672v0 0z"></path>
<path fill="#444444" d="M16 18.824c-0.245-1.062-1.010-1.304-1.715-1.997-0.461-0.454-1.219-1.241-1.926-1.185-0.373 0.030-0.475-0.467-0.706-0.747-0.25-0.303-0.567-0.62-0.954-0.74-0.357-0.11-0.521 0.115-0.65-0.233-0.167-0.446-0.3-0.905-0.468-1.352-0.3-0.794-0.941-1.38-1.907-1.215-0.785 0.134-1.148 0.796-1.599 1.582-0.246-0.408-0.399-1.32-0.421-1.79-0.031-0.657-0.135-4.617-0.135-5.95 0-1.165-0.030-2.805-0.478-3.496-0.566-0.873-1.814-0.867-2.425-0.037-0.559 0.759-0.532 2.603-0.532 3.831 0 1.596 0 2.695 0 4.151 0 1.214-0.042 2.431-0.041 3.642 0 0.758-0.326 0.544-0.83 0.94-0.383 0.299-0.57 0.757-0.651 1.221-0.161 0.926-0.184 1.152-0.371 2.438-0.139 0.955-0.19 2.329 0.024 3.281 0.449 2.007 2.21 3.489 3.288 5.17 0.533 0.831 1.111 1.728 1.111 2.709 0 0.422 0 2.216 0 2.216 0 0.472 0.386 0.858 0.864 0.858h7.67c0.477 0 0.868-0.386 0.868-0.858 0 0 0-0.699 0-0.738 0-1.999-0.109-2.335 1.009-5.48 0.674-1.896 1.442-4.203 0.977-6.221v0 0z"></path>
</svg>
