<?xml version="1.0" encoding="utf-8"?>
<!-- Generated by IcoMoon.io -->
<!DOCTYPE svg PUBLIC "-//W3C//DTD SVG 1.1//EN" "http://www.w3.org/Graphics/SVG/1.1/DTD/svg11.dtd">
<svg version="1.1" xmlns="http://www.w3.org/2000/svg" xmlns:xlink="http://www.w3.org/1999/xlink" width="23" height="32" viewBox="0 0 23 32">
<path fill="#444444" d="M8.774 1.75c0.371-0.504 0.964-0.805 1.585-0.805 0.647 0 1.243 0.324 1.594 0.866 0.358 0.552 0.485 1.51 0.525 2.574 0.373-0.462 0.597-1.047 0.597-1.684 0-1.491-1.223-2.7-2.731-2.7s-2.731 1.209-2.731 2.7c0 0.619 0.211 1.189 0.566 1.645 0.042-1.105 0.176-2.027 0.594-2.595v0-0z"></path>
<path fill="#444444" d="M2.26 15.297c-0.191-0.395-0.434-0.724-0.709-1.082-0.245-0.32-0.785-1.138-0.502-1.837 0.107-0.264 0.369-0.601 1.011-0.704 0.157-0.026 0.317-0.039 0.473-0.039 1.048 0 2.056 0.586 2.926 1.677 0.001-0.035 0.003-0.072 0.003-0.107 0-1.491-1.223-2.7-2.731-2.7s-2.731 1.209-2.731 2.7c0 1.409 1.092 2.566 2.486 2.689-0.070-0.213-0.137-0.413-0.226-0.597v0 0z"></path>
<path fill="#444444" d="M22.199 18.733c-0.239-1.033-0.983-1.268-1.669-1.943-0.449-0.441-1.186-1.208-1.874-1.153-0.363 0.029-0.462-0.454-0.686-0.727-0.244-0.295-0.551-0.603-0.928-0.72-0.348-0.107-0.506 0.112-0.633-0.226-0.162-0.435-0.292-0.881-0.456-1.315-0.292-0.773-0.916-1.342-1.856-1.182-0.764 0.13-1.117 0.775-1.556 1.539-0.239-0.397-0.388-1.284-0.41-1.741-0.029-0.638-0.131-4.492-0.131-5.79 0-1.134-0.029-2.729-0.465-3.401-0.551-0.849-1.765-0.844-2.36-0.036-0.544 0.739-0.517 2.533-0.517 3.727 0 1.553 0 2.622 0 4.039 0 1.181-0.041 2.365-0.040 3.544 0 0.729-0.048 1.032-0.116 2.093-0.010 0.086-0.019 0.173-0.031 0.259-0.049 0.368-0.121 0.734-0.219 1.092-0.077 0.267-0.163 0.479-0.245 0.537-0.166 0.047-0.397-0.249-0.516-0.402-0.262-0.339-0.47-0.709-0.754-1.032-0.288-0.327-0.627-0.584-0.832-0.975-0.702-1.339-1.988-3.049-3.767-2.762-1.096 0.177-0.624 1.198-0.193 1.76 0.292 0.381 0.552 0.733 0.761 1.167 0.218 0.451 0.308 0.948 0.537 1.394 0.451 0.881 1.158 1.682 1.742 2.479 0.573 0.782 1.060 1.594 1.538 2.435 0.332 0.583 0.798 1.114 1.244 1.644 0.7 1.041 1.614 1.986 2.268 3.007 0.519 0.809 1.081 1.682 1.081 2.636 0 0.41 0 2.156 0 2.156 0 0.459 0.376 0.835 0.841 0.835h7.463c0.464 0 0.845-0.376 0.845-0.835 0 0 0-0.681 0-0.718 0-1.945-0.106-2.272 0.982-5.332 0.656-1.846 1.404-4.090 0.951-6.053h-0z"></path>
<path fill="#444444" d="M4.010 6.207l-0.709-0.461c-0.361 0.563-0.66 1.146-0.895 1.744l-0.769-0.151 0.689 2.714 1.688-2.246-0.761-0.15c0.206-0.498 0.459-0.983 0.758-1.45v0z"></path>
<path fill="#444444" d="M3.613 5.283l0.71 0.461c0.316-0.44 0.671-0.863 1.063-1.268l0.472 0.579 1.267-2.591-2.831 0.672 0.557 0.684c-0.463 0.469-0.876 0.957-1.238 1.463v0 0z"></path>
</svg>
