<?xml version="1.0" encoding="utf-8"?>
<!-- Generated by IcoMoon.io -->
<!DOCTYPE svg PUBLIC "-//W3C//DTD SVG 1.1//EN" "http://www.w3.org/Graphics/SVG/1.1/DTD/svg11.dtd">
<svg version="1.1" xmlns="http://www.w3.org/2000/svg" xmlns:xlink="http://www.w3.org/1999/xlink" width="16" height="32" viewBox="0 0 16 32">
<path fill="#444444" d="M0.875 5.247c-0.060-0.397-0.104-0.803-0.106-1.328-0.005-1.15 0.607-2.067 1.49-2.23 0.13-0.024 0.259-0.036 0.384-0.036 0.609 0 1.7 0.307 2.166 2.362 0.049 0.216 0.094 0.426 0.136 0.627 0.237-0.393 0.374-0.853 0.374-1.344 0-1.452-1.191-2.629-2.659-2.629s-2.659 1.177-2.659 2.629c-0.001 0.773 0.337 1.468 0.874 1.949v0 0z"></path>
<path fill="#444444" d="M7.711 2.588c0.229-0.961 1.019-1.633 1.922-1.633 0.839 0 1.733 0.612 1.841 1.979 0.009 0.119 0.018 0.211 0.025 0.288 0.035 0.396 0.037 0.47-0.023 1.283 0.492-0.477 0.797-1.141 0.797-1.876 0-1.452-1.191-2.629-2.659-2.629s-2.659 1.177-2.659 2.629c0 0.533 0.161 1.029 0.437 1.444 0.079-0.429 0.186-0.927 0.319-1.485v0z"></path>
<path fill="#444444" d="M15.814 19.172c-0.232-1.006-0.957-1.235-1.625-1.892-0.437-0.43-1.155-1.176-1.824-1.122-0.353 0.028-0.45-0.442-0.669-0.708-0.237-0.287-0.537-0.587-0.903-0.701-0.338-0.104-0.509 0.115-0.617-0.22-0.109-0.342-0.22-0.724-0.22-0.772 0.008-0.544 0.92-7.703 1.015-8.993 0.098-1.316 0.078-1.063 0.020-1.792-0.162-2.057-2.411-1.952-2.81-0.274-0.176 0.74-0.306 1.376-0.385 1.872-0.22 1.39-0.572 5.116-0.901 7.274-0.028 0.187-0.172 1.394-0.553 1.198-0.251-0.129-0.289-0.688-0.348-0.924-0.207-0.82-1.009-4.812-1.241-5.96-0.073-0.362-0.218-1.159-0.417-2.037-0.323-1.427-1-2.144-1.989-1.96-0.594 0.11-1.1 0.794-1.095 1.758 0.004 0.881 0.126 1.389 0.259 2.207 0.121 0.75 1.036 5.574 1.196 6.716 0.122 0.869-0.425 1.605-0.904 1.98-0.363 0.284-0.541 0.717-0.617 1.156-0.152 0.877-0.174 1.091-0.352 2.309-0.132 0.905-0.18 2.206 0.022 3.108 0.425 1.902 2.094 3.305 3.115 4.897 0.505 0.787 1.053 1.637 1.053 2.566 0 0.4 0 2.1 0 2.1 0 0.447 0.366 0.813 0.818 0.813h7.268c0.452 0 0.822-0.366 0.822-0.813 0 0 0-0.663 0-0.699 0-1.894-0.104-2.212 0.956-5.192 0.639-1.798 1.367-3.983 0.926-5.895v0 0zM9.941 23.054v4.896h-2.084v-4.896h-1.499l2.542-5.305 2.542 5.305h-1.5z"></path>
</svg>
