<?xml version="1.0" encoding="utf-8"?>
<!-- Generated by IcoMoon.io -->
<!DOCTYPE svg PUBLIC "-//W3C//DTD SVG 1.1//EN" "http://www.w3.org/Graphics/SVG/1.1/DTD/svg11.dtd">
<svg version="1.1" xmlns="http://www.w3.org/2000/svg" xmlns:xlink="http://www.w3.org/1999/xlink" width="16" height="32" viewBox="0 0 16 32">
<path fill="#444444" d="M2.143 2.315c0.371-0.504 0.964-0.805 1.585-0.805 0.647 0 1.243 0.323 1.594 0.865 0.252 0.389 0.389 0.98 0.462 1.667 0.11-0.262 0.172-0.55 0.172-0.851 0-1.22-1.001-2.209-2.234-2.209s-2.235 0.99-2.235 2.209c0 0.263 0.046 0.516 0.132 0.75 0.081-0.673 0.235-1.235 0.523-1.626v0 0z"></path>
<path fill="#444444" d="M1.34 1.737c0.557-0.758 1.45-1.21 2.389-1.21 0.987 0 1.895 0.492 2.43 1.317 0.372 0.573 0.554 1.34 0.637 2.319 0.1-0.307 0.154-0.634 0.154-0.973 0-1.759-1.448-3.191-3.228-3.191s-3.228 1.431-3.228 3.191c0 0.295 0.041 0.581 0.118 0.853 0.091-0.921 0.292-1.714 0.728-2.306z"></path>
<path fill="#444444" d="M15.568 19.298c-0.239-1.034-0.983-1.268-1.669-1.943-0.449-0.442-1.186-1.208-1.874-1.153-0.362 0.029-0.462-0.454-0.686-0.727-0.244-0.295-0.552-0.603-0.928-0.72-0.347-0.108-0.506 0.112-0.633-0.227-0.162-0.434-0.292-0.88-0.456-1.315-0.292-0.773-0.916-1.342-1.856-1.183-0.764 0.13-1.117 0.775-1.556 1.539-0.24-0.397-0.389-1.285-0.41-1.741-0.029-0.639-0.131-4.492-0.131-5.79 0-1.133-0.029-2.729-0.465-3.401-0.551-0.849-1.765-0.844-2.36-0.036-0.543 0.739-0.517 2.533-0.517 3.727 0 1.553 0 2.622 0 4.039 0 1.181-0.041 2.365-0.040 3.544 0 0.737-0.317 0.529-0.808 0.914-0.372 0.291-0.555 0.736-0.634 1.188-0.156 0.9-0.179 1.121-0.361 2.372-0.135 0.929-0.185 2.265 0.023 3.192 0.437 1.953 2.15 3.395 3.199 5.030 0.519 0.809 1.081 1.682 1.081 2.636 0 0.411 0 2.156 0 2.156 0 0.459 0.376 0.835 0.84 0.835h7.463c0.465 0 0.845-0.376 0.845-0.835 0 0 0-0.681 0-0.718 0-1.945-0.106-2.272 0.982-5.332 0.656-1.845 1.404-4.089 0.951-6.052h-0z"></path>
</svg>
