<?xml version="1.0" encoding="utf-8"?>
<!-- Generated by IcoMoon.io -->
<!DOCTYPE svg PUBLIC "-//W3C//DTD SVG 1.1//EN" "http://www.w3.org/Graphics/SVG/1.1/DTD/svg11.dtd">
<svg version="1.1" xmlns="http://www.w3.org/2000/svg" xmlns:xlink="http://www.w3.org/1999/xlink" width="25" height="32" viewBox="0 0 25 32">
<path fill="#444444" d="M17.22 5.566c0.078-0.426 0.202-0.891 0.38-1.419 0.312-0.929 0.859-1.4 1.627-1.4 0.117 0 0.241 0.012 0.367 0.035 1.531 0.275 1.469 1.76 1.446 2.319-0.002 0.044-0.003 0.084-0.004 0.12-0.008 0.269-0.063 0.757-0.152 1.382 0.691-0.475 1.143-1.264 1.143-2.159 0-1.452-1.191-2.629-2.659-2.629s-2.659 1.177-2.659 2.629c0 0.541 0.166 1.045 0.45 1.463 0.025-0.135 0.045-0.251 0.062-0.341v0z"></path>
<path fill="#444444" d="M11.935 4.149c-0.008-0.503-0.016-0.978 0.14-1.633 0.229-0.966 0.984-1.615 1.879-1.615 0.822 0 1.732 0.607 1.913 1.964 0.083 0.623 0.112 0.96 0.122 1.397 0.36-0.449 0.576-1.015 0.576-1.633 0-1.452-1.191-2.629-2.659-2.629s-2.659 1.177-2.659 2.629c0 0.681 0.262 1.302 0.692 1.769-0.001-0.085-0.002-0.168-0.003-0.249v0z"></path>
<path fill="#444444" d="M6.708 6.039c-0.080-0.482-0.143-0.942-0.147-1.577-0.006-1.15 0.607-2.067 1.49-2.231 0.131-0.024 0.259-0.036 0.384-0.036 0.609 0 1.7 0.307 2.166 2.362 0.045 0.198 0.087 0.392 0.126 0.578 0.177-0.351 0.276-0.748 0.276-1.166 0-1.453-1.191-2.629-2.659-2.629s-2.659 1.176-2.659 2.629c-0.001 0.841 0.4 1.59 1.022 2.071v0z"></path>
<path fill="#444444" d="M22.648 6.509c-1.229 0-2.224 0.984-2.224 2.199 0 0.302 0.061 0.589 0.173 0.851 0.397-1.357 0.86-2.16 1.378-2.384 0.21-0.092 0.439-0.139 0.661-0.139 0.398 0 0.772 0.147 1.080 0.428 0.778 0.706 0.429 2.114 0.242 2.869l-0.014 0.057c-0.008 0.037-0.019 0.080-0.031 0.127 0.58-0.397 0.96-1.059 0.96-1.809 0-1.215-0.996-2.2-2.224-2.2v0z"></path>
<path fill="#444444" d="M2.2 16.369c-0.185-0.385-0.423-0.706-0.691-1.054-0.238-0.311-0.764-1.108-0.488-1.789 0.104-0.257 0.358-0.584 0.984-0.685 0.153-0.025 0.308-0.037 0.461-0.037 1.019 0 2.002 0.57 2.85 1.632 0.001-0.034 0.003-0.069 0.003-0.104 0-1.453-1.191-2.629-2.659-2.629s-2.659 1.176-2.659 2.629c0 1.373 1.064 2.499 2.421 2.617-0.068-0.206-0.134-0.402-0.221-0.58v0 0z"></path>
<path fill="#444444" d="M23.389 7.816c-0.395-0.359-0.862-0.359-1.22-0.204-0.494 0.215-0.929 1.429-1.16 2.264-0.254 0.915-0.69 2.6-0.883 3.245-0.286 0.957-0.879 2.652-0.99 2.222-0.072-0.277-0.027-1.11 0.027-1.434 0.001-0.008 0.067-0.381 0.067-0.381 0.282-1.577 1.292-7.167 1.322-8.318 0.014-0.52 0.163-1.741-1.044-1.958-0.769-0.138-1.187 0.269-1.449 1.045-0.147 0.437-0.28 0.901-0.363 1.354-0.222 1.217-1.246 6.979-1.378 7.616-0.042 0.204-0.198 1.271-0.464 1.267-0.109-0.008-0.105-0.214-0.105-0.235 0.008-0.544-0.241-7.266-0.241-9.599 0-0.685-0.016-0.988-0.12-1.773-0.274-2.045-2.444-1.98-2.843-0.302-0.176 0.74-0.123 1.22-0.123 1.884 0 1.405 0.105 5.368 0.105 7.756 0 0.338-0.009 1.514-0.392 1.318-0.095-0.049-0.16-0.16-0.206-0.291-0.007-0.035-0.014-0.069-0.020-0.103-0.003 0.003-0.006 0.007-0.008 0.010-0.056-0.195-0.082-0.414-0.113-0.54-0.207-0.82-1.010-4.812-1.241-5.96-0.072-0.362-0.218-1.16-0.417-2.037-0.323-1.427-1-2.144-1.989-1.96-0.595 0.109-1.1 0.793-1.095 1.758 0.004 0.881 0.125 1.389 0.259 2.207 0.107 0.659 0.825 4.46 1.107 6.148 0.069 0.332-0.019 1.106-0.018 1.657 0 0.711-0.047 1.004-0.113 2.037-0.010 0.084-0.019 0.168-0.030 0.253-0.048 0.359-0.117 0.714-0.212 1.063-0.075 0.26-0.159 0.467-0.239 0.523-0.162 0.045-0.387-0.243-0.502-0.392-0.255-0.33-0.457-0.69-0.734-1.005-0.28-0.318-0.611-0.568-0.81-0.949-0.683-1.304-1.935-2.969-3.667-2.689-1.068 0.172-0.607 1.166-0.188 1.713 0.285 0.371 0.537 0.715 0.741 1.137 0.213 0.44 0.3 0.924 0.523 1.357 0.44 0.858 1.127 1.638 1.696 2.414 0.557 0.762 1.032 1.553 1.498 2.371 0.312 0.549 0.746 1.049 1.167 1.548 0.685 1.034 1.595 1.97 2.243 2.98 0.505 0.787 1.052 1.638 1.052 2.567 0 0.4 0 2.099 0 2.099 0 0.446 0.366 0.813 0.819 0.813h7.277c0.452 0 0.823-0.366 0.823-0.813 0 0 0-0.663 0-0.699 0-1.895-0.104-2.212 0.956-5.192 0.521-1.466 1.101-3.191 1.058-4.814 0.008-0.207-0.001-0.633-0.025-0.992 0-0.001 0-0.002 0-0.003-0.003-0.025-0.004-0.051-0.006-0.075-0.017-1.179 0.039-2.372 0.206-3.538 0.062-0.43 1.31-4.93 1.552-5.91 0.146-0.59 0.501-1.929-0.085-2.461v0zM17.173 25.256v-1.052h-1.964v1.942h1.064l-1.885 3.064-1.885-3.064h1.064v-1.942h-1.964v1.052l-3.098-1.864 3.098-1.864v1.052h1.964v-1.942h-1.064l1.885-3.064 1.885 3.064h-1.064v1.942h1.964v-1.052l3.098 1.864-3.098 1.864z"></path>
</svg>
