<?xml version="1.0" encoding="utf-8"?>
<!-- Generated by IcoMoon.io -->
<!DOCTYPE svg PUBLIC "-//W3C//DTD SVG 1.1//EN" "http://www.w3.org/Graphics/SVG/1.1/DTD/svg11.dtd">
<svg version="1.1" xmlns="http://www.w3.org/2000/svg" xmlns:xlink="http://www.w3.org/1999/xlink" width="16" height="32" viewBox="0 0 16 32">
<path fill="#444444" d="M2.144 1.823c0.37-0.505 0.963-0.805 1.584-0.805 0.647 0 1.244 0.324 1.595 0.866s0.478 1.475 0.522 2.514c0.38-0.464 0.608-1.054 0.608-1.698 0-1.491-1.223-2.7-2.731-2.7s-2.731 1.209-2.731 2.7c0 0.616 0.209 1.184 0.561 1.638 0.046-1.069 0.183-1.961 0.592-2.515v0 0z"></path>
<path fill="#444444" d="M15.568 18.806c-0.239-1.034-0.982-1.268-1.669-1.943-0.449-0.441-1.186-1.208-1.874-1.153-0.362 0.029-0.462-0.454-0.687-0.727-0.243-0.295-0.551-0.603-0.927-0.72-0.348-0.107-0.507 0.112-0.633-0.226-0.162-0.435-0.291-0.88-0.456-1.315-0.291-0.773-0.915-1.342-1.855-1.183-0.765 0.13-1.118 0.775-1.557 1.539-0.239-0.397-0.388-1.284-0.41-1.741-0.029-0.639-0.131-4.492-0.131-5.79 0-1.133-0.029-2.729-0.464-3.401-0.55-0.849-1.765-0.844-2.359-0.036-0.544 0.739-0.517 2.533-0.517 3.727 0 1.552 0 2.622 0 4.039 0 1.181-0.042 2.365-0.040 3.544 0 0.738-0.317 0.53-0.809 0.914-0.372 0.291-0.554 0.736-0.634 1.188-0.157 0.901-0.178 1.121-0.361 2.372-0.135 0.93-0.185 2.266 0.023 3.192 0.437 1.953 2.15 3.395 3.198 5.030 0.519 0.809 1.081 1.682 1.081 2.636 0 0.411 0 2.156 0 2.156 0 0.459 0.376 0.835 0.841 0.835h7.463c0.464 0 0.845-0.376 0.845-0.835 0 0 0-0.681 0-0.718 0-1.945-0.106-2.272 0.982-5.332 0.656-1.845 1.404-4.089 0.95-6.052v0 0zM8.466 27.822l-2.61-5.449h1.54v-5.028h2.14v5.028h1.541l-2.611 5.449z"></path>
</svg>
