<?xml version="1.0" encoding="utf-8"?>
<!-- Generated by IcoMoon.io -->
<!DOCTYPE svg PUBLIC "-//W3C//DTD SVG 1.1//EN" "http://www.w3.org/Graphics/SVG/1.1/DTD/svg11.dtd">
<svg version="1.1" xmlns="http://www.w3.org/2000/svg" xmlns:xlink="http://www.w3.org/1999/xlink" width="16" height="32" viewBox="0 0 16 32">
<path fill="#444444" d="M2.143 1.824c0.371-0.504 0.964-0.806 1.586-0.806 0.647 0 1.243 0.324 1.594 0.866s0.479 1.475 0.523 2.514c0.38-0.464 0.608-1.054 0.608-1.698 0-1.491-1.222-2.7-2.731-2.7s-2.731 1.209-2.731 2.7c0 0.617 0.209 1.184 0.561 1.639 0.045-1.069 0.184-1.962 0.591-2.515v0z"></path>
<path fill="#444444" d="M15.568 18.807c-0.239-1.034-0.983-1.269-1.669-1.943-0.449-0.441-1.186-1.208-1.874-1.153-0.362 0.029-0.461-0.454-0.686-0.726-0.244-0.295-0.551-0.604-0.928-0.72-0.348-0.108-0.506 0.112-0.633-0.227-0.162-0.434-0.292-0.88-0.456-1.315-0.292-0.773-0.916-1.342-1.856-1.182-0.764 0.13-1.117 0.775-1.556 1.539-0.239-0.397-0.388-1.284-0.409-1.741-0.030-0.639-0.132-4.492-0.132-5.79 0-1.133-0.029-2.729-0.465-3.401-0.551-0.848-1.765-0.843-2.36-0.036-0.544 0.739-0.517 2.533-0.517 3.728 0 1.552 0 2.622 0 4.039 0 1.181-0.041 2.365-0.040 3.544 0 0.737-0.317 0.529-0.808 0.914-0.372 0.291-0.555 0.737-0.634 1.187-0.157 0.901-0.179 1.121-0.361 2.372-0.135 0.929-0.184 2.265 0.023 3.192 0.437 1.953 2.15 3.395 3.199 5.030 0.519 0.809 1.080 1.681 1.080 2.635 0 0.411 0 2.156 0 2.156 0 0.46 0.376 0.835 0.841 0.835h7.463c0.464 0 0.844-0.375 0.844-0.835 0 0 0-0.681 0-0.718 0-1.945-0.106-2.272 0.982-5.332 0.657-1.846 1.405-4.089 0.951-6.052h-0zM8.537 26.448c-2.337 0-4.231-1.872-4.231-4.182 0-1.927 1.318-3.549 3.111-4.034v-0.637h-0.612v-0.537h3.463v0.537h-0.612v0.637c1.793 0.485 3.111 2.107 3.111 4.034 0 2.309-1.894 4.182-4.231 4.182v0zM8.537 22.266v-3.79c1.057 0 2.014 0.425 2.708 1.11l-2.708 2.679z"></path>
</svg>
