<?xml version="1.0" encoding="utf-8"?>
<!-- Generated by IcoMoon.io -->
<!DOCTYPE svg PUBLIC "-//W3C//DTD SVG 1.1//EN" "http://www.w3.org/Graphics/SVG/1.1/DTD/svg11.dtd">
<svg version="1.1" xmlns="http://www.w3.org/2000/svg" xmlns:xlink="http://www.w3.org/1999/xlink" width="16" height="32" viewBox="0 0 16 32">
<path fill="#444444" d="M7.422 2.167c0.235-0.988 1.046-1.677 1.973-1.677 0.861 0 1.78 0.628 1.891 2.032 0.010 0.122 0.018 0.217 0.025 0.296 0.017 0.183 0.026 0.299 0.025 0.449 0.174-0.315 0.273-0.675 0.273-1.059 0-1.218-1.003-2.209-2.235-2.209s-2.234 0.991-2.234 2.209c0 0.242 0.040 0.475 0.113 0.693 0.051-0.232 0.106-0.477 0.168-0.734v0 0z"></path>
<path fill="#444444" d="M0.293 3.535c-0.006-1.182 0.623-2.123 1.53-2.291 0.133-0.024 0.266-0.037 0.394-0.037 0.607 0 1.681 0.297 2.18 2.245 0.047-0.178 0.072-0.363 0.072-0.555 0-1.218-1.003-2.209-2.235-2.209s-2.234 0.991-2.234 2.209c0 0.407 0.112 0.789 0.307 1.116-0.008-0.15-0.014-0.308-0.014-0.478v0z"></path>
<path fill="#444444" d="M15.743 19.2c-0.239-1.034-0.983-1.268-1.669-1.942-0.449-0.442-1.186-1.208-1.874-1.153-0.362 0.029-0.462-0.454-0.686-0.726-0.244-0.295-0.551-0.604-0.928-0.72-0.347-0.107-0.523 0.118-0.633-0.226-0.112-0.351-0.226-0.744-0.225-0.793 0.008-0.559 0.945-7.911 1.043-9.236 0.1-1.353 0.080-1.091 0.021-1.841-0.167-2.113-2.476-2.004-2.886-0.281-0.181 0.759-0.315 1.413-0.395 1.923-0.225 1.426-0.587 5.253-0.925 7.47-0.029 0.192-0.176 1.431-0.568 1.231-0.257-0.132-0.296-0.707-0.357-0.95-0.212-0.841-1.036-4.941-1.274-6.121-0.075-0.373-0.224-1.191-0.429-2.092-0.332-1.466-1.027-2.202-2.043-2.014-0.61 0.113-1.129 0.816-1.124 1.807 0.004 0.904 0.13 1.426 0.266 2.267 0.125 0.771 1.064 5.725 1.228 6.897 0.125 0.893-0.437 1.648-0.928 2.033-0.372 0.291-0.555 0.736-0.634 1.187-0.156 0.9-0.179 1.121-0.361 2.371-0.135 0.929-0.184 2.265 0.023 3.192 0.437 1.953 2.15 3.395 3.199 5.030 0.519 0.809 1.080 1.682 1.080 2.635 0 0.412 0 2.156 0 2.156 0 0.46 0.376 0.835 0.841 0.835h7.464c0.464 0 0.844-0.375 0.844-0.835 0 0 0-0.68 0-0.717 0-1.946-0.106-2.272 0.982-5.333 0.656-1.846 1.404-4.091 0.951-6.054v0 0z"></path>
</svg>
