<?xml version="1.0" encoding="utf-8"?>
<!-- Generated by IcoMoon.io -->
<!DOCTYPE svg PUBLIC "-//W3C//DTD SVG 1.1//EN" "http://www.w3.org/Graphics/SVG/1.1/DTD/svg11.dtd">
<svg version="1.1" xmlns="http://www.w3.org/2000/svg" xmlns:xlink="http://www.w3.org/1999/xlink" width="16" height="32" viewBox="0 0 16 32">
<path fill="#444444" d="M2.142 1.823c0.371-0.505 0.964-0.805 1.585-0.805 0.647 0 1.243 0.324 1.594 0.866s0.48 1.475 0.522 2.514c0.381-0.464 0.608-1.054 0.608-1.698 0-1.491-1.223-2.7-2.731-2.7s-2.731 1.209-2.731 2.7c0 0.616 0.21 1.184 0.561 1.638 0.046-1.069 0.184-1.961 0.592-2.515v0 0z"></path>
<path fill="#444444" d="M15.568 18.806c-0.239-1.034-0.983-1.268-1.669-1.943-0.449-0.441-1.187-1.208-1.874-1.153-0.362 0.029-0.461-0.454-0.686-0.727-0.244-0.295-0.552-0.603-0.928-0.72-0.348-0.107-0.507 0.112-0.633-0.226-0.163-0.435-0.291-0.88-0.455-1.315-0.292-0.773-0.916-1.342-1.857-1.183-0.764 0.13-1.117 0.775-1.555 1.539-0.24-0.397-0.389-1.284-0.41-1.741-0.030-0.639-0.132-4.492-0.132-5.79 0-1.133-0.029-2.729-0.464-3.401-0.55-0.849-1.765-0.844-2.359-0.036-0.544 0.739-0.517 2.533-0.517 3.727 0 1.552 0 2.622 0 4.039 0 1.181-0.042 2.365-0.040 3.544 0 0.738-0.317 0.53-0.809 0.914-0.372 0.291-0.555 0.736-0.633 1.188-0.157 0.901-0.179 1.121-0.361 2.372-0.135 0.93-0.184 2.266 0.022 3.192 0.438 1.953 2.15 3.395 3.199 5.030 0.519 0.809 1.081 1.682 1.081 2.636 0 0.411 0 2.156 0 2.156 0 0.459 0.376 0.835 0.84 0.835h7.464c0.464 0 0.844-0.376 0.844-0.835 0 0 0-0.681 0-0.718 0-1.945-0.106-2.272 0.982-5.332 0.656-1.845 1.404-4.089 0.951-6.052v0 0zM11.076 24.459l-2.611 4.058-2.61-4.058h1.54v-3.753h-1.54l2.61-4.057 2.611 4.057h-1.54v3.753h1.54z"></path>
</svg>
