<?xml version="1.0" encoding="utf-8"?>
<!-- Generated by IcoMoon.io -->
<!DOCTYPE svg PUBLIC "-//W3C//DTD SVG 1.1//EN" "http://www.w3.org/Graphics/SVG/1.1/DTD/svg11.dtd">
<svg version="1.1" xmlns="http://www.w3.org/2000/svg" xmlns:xlink="http://www.w3.org/1999/xlink" width="17" height="32" viewBox="0 0 17 32">
<path fill="#444444" d="M8.194 3.066c0.229-0.962 1.019-1.632 1.921-1.632 0.839 0 1.734 0.611 1.842 1.978 0.009 0.119 0.017 0.211 0.024 0.288 0.016 0.179 0.025 0.291 0.025 0.437 0.17-0.307 0.266-0.657 0.266-1.031 0-1.186-0.976-2.151-2.176-2.151s-2.176 0.965-2.176 2.151c0 0.236 0.039 0.462 0.11 0.675 0.050-0.226 0.104-0.463 0.164-0.715v0 0z"></path>
<path fill="#444444" d="M1.252 4.398c-0.006-1.15 0.607-2.067 1.49-2.231 0.13-0.024 0.259-0.036 0.384-0.036 0.591 0 1.637 0.289 2.123 2.185 0.046-0.173 0.070-0.354 0.070-0.54 0-1.187-0.976-2.152-2.176-2.152s-2.176 0.965-2.176 2.152c0 0.397 0.109 0.768 0.299 1.086-0.008-0.145-0.013-0.299-0.014-0.465v0z"></path>
<path fill="#444444" d="M7.252 2.847c0.332-1.395 1.509-2.37 2.863-2.37 1.242 0 2.65 0.895 2.805 2.861 0.009 0.114 0.017 0.202 0.024 0.277 0.027 0.3 0.036 0.457 0.023 0.754 0.174-0.386 0.272-0.813 0.272-1.262 0-1.713-1.41-3.107-3.143-3.107s-3.143 1.394-3.143 3.107c0 0.242 0.029 0.478 0.082 0.704 0.062-0.299 0.134-0.62 0.216-0.964v0z"></path>
<path fill="#444444" d="M0.285 4.402c-0.008-1.619 0.929-2.925 2.278-3.175 0.189-0.035 0.378-0.052 0.562-0.052 0.723 0 2.474 0.303 3.11 3.109 0.001 0.006 0.003 0.012 0.004 0.019 0.030-0.171 0.046-0.347 0.046-0.527 0-1.713-1.41-3.107-3.143-3.107s-3.143 1.394-3.143 3.107c0 0.486 0.113 0.946 0.315 1.356-0.018-0.222-0.029-0.463-0.030-0.73v0z"></path>
<path fill="#444444" d="M16.296 19.651c-0.232-1.007-0.957-1.235-1.625-1.892-0.437-0.429-1.155-1.176-1.825-1.123-0.353 0.029-0.45-0.442-0.668-0.707-0.237-0.287-0.537-0.588-0.903-0.701-0.338-0.105-0.509 0.114-0.616-0.221-0.109-0.342-0.22-0.724-0.219-0.772 0.007-0.543 0.92-7.703 1.015-8.993 0.097-1.317 0.078-1.063 0.020-1.793-0.162-2.057-2.411-1.951-2.81-0.275-0.176 0.74-0.306 1.377-0.385 1.873-0.219 1.389-0.572 5.115-0.901 7.273-0.029 0.187-0.171 1.394-0.553 1.198-0.251-0.129-0.289-0.689-0.348-0.925-0.207-0.819-1.009-4.811-1.241-5.96-0.073-0.363-0.218-1.16-0.417-2.037-0.323-1.427-1-2.144-1.989-1.961-0.594 0.11-1.099 0.794-1.095 1.759 0.004 0.88 0.126 1.389 0.259 2.207 0.121 0.75 1.036 5.575 1.196 6.716 0.121 0.87-0.425 1.605-0.904 1.98-0.362 0.284-0.54 0.717-0.617 1.156-0.152 0.877-0.174 1.091-0.352 2.309-0.132 0.905-0.179 2.205 0.022 3.108 0.425 1.901 2.094 3.305 3.115 4.898 0.505 0.787 1.052 1.638 1.052 2.566 0 0.401 0 2.099 0 2.099 0 0.447 0.366 0.813 0.818 0.813h7.267c0.452 0 0.822-0.366 0.822-0.813 0 0 0-0.662 0-0.699 0-1.894-0.104-2.211 0.956-5.192 0.639-1.798 1.367-3.982 0.926-5.894v0 0z"></path>
</svg>
