<?xml version="1.0" encoding="utf-8"?>
<!-- Generated by IcoMoon.io -->
<!DOCTYPE svg PUBLIC "-//W3C//DTD SVG 1.1//EN" "http://www.w3.org/Graphics/SVG/1.1/DTD/svg11.dtd">
<svg version="1.1" xmlns="http://www.w3.org/2000/svg" xmlns:xlink="http://www.w3.org/1999/xlink" width="23" height="32" viewBox="0 0 23 32">
<path fill="#444444" d="M8.774 1.75c0.371-0.504 0.964-0.805 1.585-0.805 0.647 0 1.243 0.324 1.594 0.865 0.358 0.552 0.485 1.51 0.525 2.574 0.373-0.462 0.597-1.047 0.597-1.684 0-1.491-1.223-2.7-2.731-2.7s-2.731 1.209-2.731 2.7c0 0.619 0.211 1.189 0.566 1.645 0.042-1.104 0.176-2.027 0.594-2.594v0z"></path>
<path fill="#444444" d="M2.26 15.297c-0.191-0.395-0.434-0.724-0.709-1.082-0.245-0.319-0.785-1.138-0.503-1.837 0.107-0.264 0.369-0.6 1.011-0.704 0.158-0.025 0.317-0.038 0.474-0.038 1.047 0 2.056 0.585 2.927 1.677 0.001-0.036 0.003-0.071 0.003-0.107 0-1.491-1.223-2.7-2.731-2.7s-2.731 1.209-2.731 2.7c0 1.41 1.093 2.566 2.486 2.689-0.070-0.213-0.137-0.413-0.226-0.597v0 0z"></path>
<path fill="#444444" d="M22.199 18.733c-0.239-1.034-0.983-1.268-1.669-1.943-0.449-0.441-1.186-1.208-1.874-1.153-0.363 0.029-0.462-0.454-0.686-0.727-0.244-0.295-0.551-0.603-0.928-0.72-0.348-0.107-0.506 0.112-0.633-0.226-0.162-0.435-0.292-0.88-0.456-1.315-0.292-0.773-0.916-1.342-1.856-1.183-0.764 0.13-1.117 0.775-1.556 1.539-0.239-0.397-0.388-1.284-0.41-1.741-0.029-0.639-0.131-4.492-0.131-5.79 0-1.133-0.029-2.729-0.465-3.401-0.551-0.849-1.765-0.844-2.36-0.036-0.544 0.739-0.517 2.533-0.517 3.727 0 1.552 0 2.622 0 4.039 0 1.181-0.041 2.365-0.040 3.544 0 0.73-0.048 1.031-0.116 2.092-0.010 0.086-0.019 0.173-0.031 0.259-0.049 0.368-0.121 0.734-0.219 1.092-0.077 0.267-0.163 0.479-0.246 0.537-0.166 0.047-0.397-0.249-0.515-0.402-0.262-0.339-0.47-0.708-0.754-1.032-0.288-0.327-0.627-0.584-0.832-0.974-0.701-1.339-1.988-3.049-3.767-2.762-1.097 0.177-0.624 1.198-0.193 1.76 0.292 0.381 0.552 0.734 0.761 1.168 0.218 0.451 0.307 0.948 0.537 1.395 0.451 0.881 1.157 1.682 1.742 2.479 0.573 0.782 1.060 1.594 1.538 2.434 0.332 0.583 0.798 1.114 1.244 1.643 0.7 1.041 1.614 1.986 2.268 3.007 0.519 0.809 1.081 1.682 1.081 2.636 0 0.411 0 2.156 0 2.156 0 0.459 0.376 0.835 0.841 0.835h7.463c0.464 0 0.844-0.376 0.844-0.835 0 0 0-0.681 0-0.718 0-1.945-0.106-2.272 0.982-5.332 0.656-1.845 1.404-4.089 0.951-6.053h-0z"></path>
<path fill="#444444" d="M1.483 7.53l2.255-1.68-0.113 2.789z"></path>
<path fill="#444444" d="M6.493 4.424l-2.626 1.233 0.698-2.79z"></path>
<path fill="#444444" d="M2.66 10.017c0.091-0.966 0.358-1.898 0.778-2.783-0.169 0.002-0.344-0.037-0.51-0.125-0.103-0.054-0.191-0.131-0.264-0.221-0.492 1.042-0.784 2.137-0.862 3.261 0.272-0.082 0.56-0.127 0.858-0.134v0z"></path>
<path fill="#444444" d="M5.166 4.709c0.572-0.622 1.232-1.202 1.964-1.732-0.008-0.092-0.012-0.185-0.012-0.278 0-0.278 0.036-0.547 0.104-0.805-0.157 0.104-0.314 0.209-0.467 0.318-0.841 0.596-1.581 1.245-2.218 1.935 0.27 0.087 0.495 0.302 0.629 0.561v0 0z"></path>
</svg>
