<?xml version="1.0" encoding="utf-8"?>
<!-- Generated by IcoMoon.io -->
<!DOCTYPE svg PUBLIC "-//W3C//DTD SVG 1.1//EN" "http://www.w3.org/Graphics/SVG/1.1/DTD/svg11.dtd">
<svg version="1.1" xmlns="http://www.w3.org/2000/svg" xmlns:xlink="http://www.w3.org/1999/xlink" width="19" height="32" viewBox="0 0 19 32">
<path fill="#444444" d="M11.535 5.566c0.078-0.426 0.202-0.891 0.38-1.419 0.312-0.928 0.859-1.399 1.626-1.399 0.117 0 0.241 0.011 0.367 0.034 1.531 0.275 1.469 1.76 1.446 2.319-0.002 0.044-0.003 0.084-0.005 0.121-0.007 0.269-0.063 0.756-0.151 1.382 0.69-0.475 1.143-1.264 1.143-2.159 0-1.452-1.191-2.629-2.659-2.629s-2.659 1.177-2.659 2.629c0 0.542 0.166 1.045 0.449 1.463 0.025-0.135 0.046-0.251 0.062-0.341z"></path>
<path fill="#444444" d="M6.249 4.149c-0.008-0.503-0.016-0.979 0.14-1.633 0.23-0.966 0.984-1.615 1.88-1.615 0.822 0 1.731 0.607 1.912 1.964 0.083 0.623 0.113 0.961 0.122 1.397 0.36-0.449 0.576-1.016 0.576-1.633 0-1.453-1.191-2.629-2.659-2.629s-2.659 1.176-2.659 2.629c0 0.681 0.262 1.302 0.692 1.768-0.001-0.085-0.002-0.168-0.003-0.248v0z"></path>
<path fill="#444444" d="M1.023 6.039c-0.080-0.482-0.143-0.942-0.146-1.577-0.006-1.15 0.607-2.067 1.49-2.23 0.13-0.024 0.259-0.037 0.384-0.037 0.609 0 1.7 0.307 2.166 2.363 0.045 0.199 0.087 0.391 0.126 0.577 0.177-0.351 0.276-0.748 0.276-1.167 0-1.452-1.191-2.629-2.659-2.629s-2.659 1.177-2.659 2.629c-0.001 0.841 0.4 1.59 1.022 2.071v0z"></path>
<path fill="#444444" d="M16.962 6.509c-1.228 0-2.224 0.984-2.224 2.199 0 0.302 0.061 0.59 0.173 0.852 0.397-1.358 0.86-2.161 1.378-2.385 0.21-0.091 0.439-0.139 0.661-0.139 0.399 0 0.772 0.148 1.081 0.428 0.778 0.706 0.429 2.114 0.242 2.869l-0.014 0.057c-0.009 0.037-0.020 0.080-0.032 0.127 0.581-0.397 0.96-1.059 0.96-1.809 0-1.215-0.996-2.199-2.224-2.199v0z"></path>
<path fill="#444444" d="M17.704 7.815c-0.395-0.358-0.862-0.358-1.22-0.202-0.494 0.214-0.929 1.428-1.16 2.264-0.254 0.915-0.69 2.6-0.883 3.245-0.286 0.957-0.879 2.652-0.99 2.222-0.072-0.278-0.028-1.11 0.027-1.434 0.001-0.007 0.067-0.381 0.067-0.381 0.282-1.577 1.292-7.168 1.322-8.318 0.013-0.52 0.163-1.741-1.044-1.957-0.769-0.138-1.187 0.268-1.449 1.045-0.147 0.437-0.28 0.9-0.363 1.353-0.222 1.217-1.246 6.979-1.378 7.617-0.042 0.204-0.198 1.271-0.464 1.267-0.109-0.008-0.105-0.215-0.105-0.236 0.008-0.544-0.241-7.265-0.241-9.599 0-0.685-0.016-0.988-0.121-1.773-0.273-2.045-2.443-1.98-2.842-0.301-0.176 0.74-0.123 1.219-0.123 1.883 0 1.406 0.105 5.368 0.105 7.756 0 0.339-0.009 1.514-0.392 1.318-0.251-0.129-0.289-0.688-0.348-0.924-0.208-0.82-1.010-4.812-1.241-5.96-0.073-0.362-0.218-1.16-0.417-2.037-0.323-1.427-1-2.144-1.99-1.96-0.594 0.11-1.099 0.793-1.095 1.758 0.004 0.881 0.126 1.389 0.259 2.207 0.121 0.75 1.036 5.575 1.196 6.716 0.121 0.87-0.425 1.605-0.904 1.98-0.363 0.284-0.541 0.717-0.617 1.156-0.152 0.877-0.173 1.091-0.352 2.31-0.131 0.904-0.179 2.205 0.023 3.107 0.425 1.901 2.094 3.305 3.115 4.898 0.505 0.787 1.053 1.638 1.053 2.566 0 0.401 0 2.099 0 2.099 0 0.448 0.365 0.813 0.818 0.813h7.268c0.451 0 0.822-0.365 0.822-0.813 0 0 0-0.662 0-0.698 0-1.895-0.104-2.212 0.956-5.192 0.51-1.434 1.075-3.114 1.060-4.706 0.019-0.102 0.013-0.655-0.019-1.101 0-0.001 0-0.002 0-0.003-0.002-0.025-0.003-0.051-0.005-0.075-0.018-1.179 0.039-2.372 0.206-3.539 0.062-0.429 1.309-4.929 1.551-5.909 0.145-0.59 0.501-1.929-0.085-2.461v0 0zM8.898 28.492l-2.541-5.306h1.5v-4.895h2.083v4.895h1.501l-2.542 5.306z"></path>
</svg>
