<?xml version="1.0" encoding="utf-8"?>
<!-- Generated by IcoMoon.io -->
<!DOCTYPE svg PUBLIC "-//W3C//DTD SVG 1.1//EN" "http://www.w3.org/Graphics/SVG/1.1/DTD/svg11.dtd">
<svg version="1.1" xmlns="http://www.w3.org/2000/svg" xmlns:xlink="http://www.w3.org/1999/xlink" width="16" height="32" viewBox="0 0 16 32">
<path fill="#444444" d="M15.568 18.807c-0.24-1.034-0.983-1.268-1.67-1.943-0.448-0.441-1.186-1.208-1.873-1.153-0.362 0.029-0.461-0.454-0.686-0.727-0.244-0.295-0.552-0.603-0.929-0.72-0.347-0.107-0.506 0.112-0.632-0.226-0.163-0.435-0.291-0.88-0.456-1.315-0.292-0.773-0.916-1.342-1.856-1.183-0.764 0.13-1.117 0.775-1.555 1.539-0.24-0.397-0.388-1.284-0.41-1.741-0.030-0.639-0.131-4.492-0.131-5.79 0-1.133-0.029-2.729-0.465-3.401-0.551-0.849-1.765-0.844-2.359-0.036-0.544 0.739-0.517 2.533-0.517 3.727 0 1.552 0 2.622 0 4.039 0 1.181-0.042 2.365-0.040 3.544 0.001 0.738-0.317 0.53-0.809 0.914-0.372 0.291-0.554 0.736-0.633 1.188-0.157 0.901-0.179 1.121-0.361 2.372-0.136 0.93-0.184 2.266 0.023 3.192 0.437 1.953 2.15 3.395 3.199 5.030 0.519 0.809 1.080 1.682 1.080 2.636 0 0.411 0 2.156 0 2.156 0 0.459 0.375 0.835 0.841 0.835h7.463c0.464 0 0.844-0.376 0.844-0.835 0 0 0-0.681 0-0.718 0-1.945-0.106-2.272 0.982-5.332 0.656-1.845 1.405-4.089 0.951-6.052v0zM13.764 23.641h-5.085v1.523l-5.512-2.581 5.512-2.581v1.523h5.085v2.116z"></path>
<path fill="#444444" d="M2.142 1.824c0.371-0.504 0.963-0.805 1.585-0.805 0.647 0 1.243 0.324 1.594 0.865s0.479 1.475 0.522 2.514c0.381-0.464 0.608-1.054 0.608-1.698 0-1.491-1.223-2.7-2.731-2.7s-2.73 1.209-2.73 2.7c0 0.616 0.209 1.184 0.56 1.638 0.046-1.069 0.184-1.961 0.592-2.515v0z"></path>
</svg>
