<?xml version="1.0" encoding="utf-8"?>
<!-- Generated by IcoMoon.io -->
<!DOCTYPE svg PUBLIC "-//W3C//DTD SVG 1.1//EN" "http://www.w3.org/Graphics/SVG/1.1/DTD/svg11.dtd">
<svg version="1.1" xmlns="http://www.w3.org/2000/svg" xmlns:xlink="http://www.w3.org/1999/xlink" width="23" height="32" viewBox="0 0 23 32">
<path fill="#444444" d="M8.773 1.75c0.371-0.504 0.964-0.805 1.586-0.805 0.647 0 1.243 0.324 1.594 0.865 0.358 0.553 0.485 1.511 0.525 2.575 0.373-0.462 0.597-1.047 0.597-1.684 0-1.491-1.223-2.7-2.731-2.7s-2.731 1.209-2.731 2.7c0 0.619 0.211 1.189 0.566 1.644 0.042-1.104 0.177-2.027 0.594-2.595v0z"></path>
<path fill="#444444" d="M2.26 15.298c-0.191-0.396-0.435-0.725-0.709-1.083-0.245-0.32-0.785-1.138-0.503-1.837 0.107-0.264 0.369-0.6 1.011-0.704 0.158-0.025 0.317-0.039 0.474-0.039 1.047 0 2.055 0.586 2.926 1.678 0.002-0.035 0.003-0.072 0.003-0.107 0-1.491-1.223-2.7-2.731-2.7s-2.731 1.209-2.731 2.7c0 1.41 1.093 2.566 2.486 2.689-0.071-0.213-0.138-0.413-0.226-0.597v0 0z"></path>
<path fill="#444444" d="M22.198 18.733c-0.239-1.034-0.983-1.268-1.669-1.942-0.449-0.442-1.186-1.208-1.874-1.153-0.362 0.029-0.461-0.454-0.686-0.727-0.244-0.295-0.551-0.603-0.928-0.72-0.347-0.107-0.506 0.112-0.633-0.226-0.162-0.435-0.292-0.881-0.456-1.315-0.292-0.773-0.916-1.342-1.856-1.182-0.764 0.13-1.117 0.775-1.556 1.539-0.239-0.397-0.389-1.285-0.41-1.742-0.029-0.639-0.131-4.492-0.131-5.789 0-1.133-0.029-2.729-0.465-3.401-0.551-0.849-1.765-0.843-2.36-0.036-0.544 0.739-0.517 2.533-0.517 3.728 0 1.552 0 2.622 0 4.039 0 1.181-0.041 2.365-0.040 3.544 0 0.73-0.048 1.031-0.116 2.092-0.010 0.086-0.019 0.173-0.031 0.259-0.049 0.368-0.121 0.733-0.219 1.091-0.077 0.267-0.163 0.479-0.245 0.537-0.166 0.047-0.397-0.249-0.516-0.402-0.262-0.339-0.47-0.708-0.754-1.032-0.287-0.327-0.627-0.584-0.832-0.975-0.702-1.34-1.988-3.050-3.767-2.762-1.096 0.177-0.624 1.199-0.193 1.761 0.293 0.381 0.552 0.733 0.762 1.168 0.218 0.451 0.307 0.947 0.536 1.393 0.451 0.881 1.158 1.682 1.742 2.48 0.573 0.783 1.060 1.595 1.538 2.435 0.332 0.584 0.798 1.114 1.244 1.643 0.7 1.041 1.614 1.987 2.268 3.007 0.519 0.809 1.081 1.682 1.081 2.636 0 0.41 0 2.156 0 2.156 0 0.459 0.376 0.835 0.84 0.835h7.464c0.464 0 0.844-0.376 0.844-0.835 0 0 0-0.681 0-0.718 0-1.945-0.107-2.273 0.981-5.333 0.657-1.845 1.405-4.089 0.952-6.052h-0zM19.868 24.031c-0.811 2.077-3.016 3.147-5.276 2.712-1.267-0.244-2.343-0.966-3.035-1.987l-0.916 0.38 0.519-3.077 2.791 1.703-1.121 0.486c0.498 0.63 1.199 1.097 2.007 1.253 1.55 0.298 3.106-0.44 3.715-1.84l0.073-0.102 1.349 0.26-0.105 0.213zM19.8 22.185l-2.77-1.565 1.063-0.437c-0.498-0.629-1.206-1.062-2.014-1.218-1.55-0.298-3.119 0.509-3.728 1.908l-0.1 0.239-1.349-0.26 0.135-0.359c0.812-2.077 3.046-3.296 5.305-2.86 1.268 0.244 2.347 0.946 3.039 1.968l0.961-0.42-0.541 3.005z"></path>
</svg>
