<?xml version="1.0" encoding="utf-8"?>
<!-- Generated by IcoMoon.io -->
<!DOCTYPE svg PUBLIC "-//W3C//DTD SVG 1.1//EN" "http://www.w3.org/Graphics/SVG/1.1/DTD/svg11.dtd">
<svg version="1.1" xmlns="http://www.w3.org/2000/svg" xmlns:xlink="http://www.w3.org/1999/xlink" width="16" height="32" viewBox="0 0 16 32">
<path fill="rgb(0, 0, 0)" d="M0.873 5.226c-0.060-0.395-0.104-0.8-0.106-1.322-0.006-1.145 0.606-2.059 1.486-2.221 0.13-0.024 0.259-0.036 0.383-0.036 0.608 0 1.697 0.306 2.162 2.353 0.049 0.215 0.094 0.424 0.136 0.625 0.237-0.392 0.373-0.85 0.373-1.339 0-1.446-1.188-2.618-2.654-2.618s-2.654 1.172-2.654 2.618c0 0.77 0.337 1.462 0.873 1.941z"></path>
<path fill="rgb(0, 0, 0)" d="M7.697 2.577c0.228-0.958 1.017-1.626 1.918-1.626 0.837 0 1.73 0.609 1.838 1.971 0.009 0.118 0.018 0.21 0.025 0.286 0.036 0.395 0.037 0.468-0.023 1.278 0.491-0.475 0.796-1.137 0.796-1.869 0-1.446-1.188-2.618-2.654-2.618s-2.654 1.172-2.654 2.618c0 0.532 0.161 1.025 0.437 1.438 0.079-0.427 0.185-0.922 0.318-1.479z"></path>
<path fill="rgb(255, 255, 255)" d="M15.785 19.092c-0.232-1.002-0.955-1.23-1.622-1.884-0.436-0.428-1.153-1.171-1.821-1.118-0.352 0.028-0.449-0.441-0.667-0.705-0.237-0.286-0.536-0.585-0.902-0.698-0.338-0.104-0.508 0.114-0.615-0.219-0.109-0.341-0.22-0.721-0.219-0.769 0.007-0.541 0.918-7.67 1.014-8.955 0.097-1.311 0.078-1.058 0.020-1.785-0.162-2.048-2.407-1.944-2.805-0.273-0.176 0.737-0.306 1.37-0.384 1.864-0.219 1.383-0.571 5.094-0.899 7.243-0.029 0.186-0.171 1.388-0.552 1.193-0.25-0.128-0.288-0.686-0.348-0.92-0.207-0.816-1.007-4.791-1.239-5.935-0.073-0.361-0.218-1.155-0.417-2.029-0.322-1.421-0.998-2.135-1.986-1.952-0.593 0.109-1.097 0.79-1.093 1.751 0.004 0.877 0.126 1.384 0.258 2.198 0.121 0.747 1.034 5.551 1.194 6.688 0.121 0.866-0.425 1.598-0.902 1.971-0.362 0.282-0.539 0.714-0.616 1.151-0.152 0.873-0.174 1.087-0.351 2.3-0.132 0.901-0.179 2.197 0.022 3.095 0.425 1.893 2.090 3.292 3.109 4.877 0.504 0.784 1.050 1.631 1.050 2.555 0 0.398 0 2.091 0 2.091 0 0.446 0.365 0.81 0.817 0.81h7.254c0.451 0 0.821-0.364 0.821-0.81 0 0 0-0.66 0-0.696 0-1.886-0.103-2.203 0.954-5.17 0.637-1.789 1.364-3.965 0.924-5.869z"></path>
<path fill="rgb(0, 0, 0)" d="M9.664 1.575c0.221 0 0.572 0.114 0.6 0.368 0.224 0.199 0.395 0.531 0.435 1.037 0.010 0.122 0.018 0.216 0.025 0.295 0.034 0.377 0.034 0.377-0.046 1.449-0.047 0.639-0.298 2.737-0.541 4.766-0.292 2.44-0.469 3.941-0.473 4.205-0.001 0.083 0.077 0.371 0.232 0.854 0.083 0.258 0.241 0.384 0.483 0.384 0.029 0 0.060-0.002 0.094-0.004 0.029-0.002 0.056-0.003 0.084-0.003 0.049 0 0.091 0.006 0.134 0.019 0.32 0.099 0.594 0.396 0.772 0.611 0.051 0.062 0.099 0.149 0.15 0.24 0.132 0.238 0.313 0.565 0.7 0.565 0.017 0 0.034-0.001 0.052-0.002 0.016-0.001 0.031-0.002 0.047-0.002 0.502 0 1.121 0.611 1.491 0.976l0.068 0.067c0.204 0.2 0.407 0.358 0.603 0.509 0.448 0.348 0.802 0.623 0.946 1.243 0.408 1.763-0.229 3.792-0.916 5.72-0.981 2.754-0.979 3.27-0.971 4.803 0.001 0.142 0.002 0.294 0.002 0.457v0.696c0 0.298-0.246 0.54-0.547 0.54h-7.254c-0.3 0-0.543-0.242-0.543-0.54v-2.091c0-1-0.578-1.899-1.088-2.693l-0.005-0.008c-0.341-0.531-0.756-1.045-1.158-1.543-0.808-1-1.643-2.035-1.915-3.248-0.191-0.851-0.147-2.119-0.019-2.998 0.044-0.303 0.079-0.544 0.108-0.748 0.088-0.613 0.129-0.893 0.242-1.545 0.078-0.447 0.251-0.779 0.516-0.985 0.573-0.447 1.137-1.266 1.003-2.22-0.102-0.728-0.502-2.898-0.823-4.642-0.176-0.956-0.328-1.782-0.372-2.051-0.025-0.156-0.050-0.3-0.074-0.438-0.099-0.576-0.177-1.030-0.181-1.718-0.002-0.479 0.13-0.858 0.322-1.113 0.028-0.241 0.376-0.481 0.571-0.517 0.084-0.016 0.159-0.006 0.237-0.006 0.138 0 0.312 0.077 0.362 0.2 0.59 0.238 0.892 1.022 1.046 1.698 0.149 0.658 0.269 1.277 0.349 1.687 0.026 0.134 0.048 0.248 0.066 0.336l0.050 0.246c0.273 1.348 0.996 4.93 1.191 5.702 0.010 0.041 0.022 0.104 0.034 0.171 0.058 0.321 0.137 0.761 0.453 0.923 0.067 0.034 0.137 0.052 0.208 0.052 0.471 0 0.631-0.672 0.735-1.399l0.007-0.046c0.178-1.163 0.364-2.796 0.528-4.237 0.139-1.22 0.271-2.373 0.371-3.004 0.078-0.494 0.206-1.114 0.38-1.844 0.108-0.453 0.361-0.75 0.649-0.909 0.063-0.245 0.409-0.262 0.583-0.262zM9.615 1.428c-0.618 0-1.254 0.442-1.448 1.259-0.176 0.737-0.306 1.37-0.384 1.864-0.219 1.383-0.571 5.094-0.899 7.243-0.026 0.172-0.151 1.214-0.471 1.214-0.026 0-0.053-0.007-0.082-0.021-0.25-0.128-0.288-0.686-0.347-0.92-0.207-0.816-1.007-4.791-1.239-5.935-0.073-0.361-0.218-1.155-0.417-2.029-0.29-1.275-0.863-1.981-1.691-1.981-0.095 0-0.193 0.009-0.295 0.028-0.593 0.109-1.097 0.79-1.093 1.751 0.004 0.877 0.126 1.384 0.258 2.198 0.121 0.748 1.034 5.551 1.194 6.688 0.121 0.866-0.425 1.598-0.902 1.971-0.362 0.282-0.539 0.714-0.616 1.151-0.152 0.873-0.174 1.087-0.351 2.3-0.132 0.901-0.179 2.197 0.022 3.095 0.425 1.893 2.090 3.292 3.109 4.877 0.504 0.784 1.050 1.631 1.050 2.555 0 0.398 0 2.091 0 2.091 0 0.446 0.365 0.81 0.817 0.81h7.254c0.451 0 0.821-0.364 0.821-0.81 0 0 0-0.66 0-0.696 0-1.886-0.103-2.203 0.954-5.17 0.638-1.79 1.365-3.966 0.924-5.869-0.232-1.002-0.955-1.23-1.622-1.884-0.421-0.413-1.104-1.12-1.752-1.12-0.023 0-0.046 0.001-0.069 0.003-0.010 0.001-0.020 0.001-0.030 0.001-0.328 0-0.425-0.449-0.637-0.706-0.237-0.286-0.536-0.585-0.902-0.698-0.081-0.025-0.152-0.031-0.215-0.031-0.068 0-0.127 0.008-0.178 0.008-0.099 0-0.168-0.028-0.222-0.195-0.109-0.341-0.22-0.721-0.219-0.769 0.007-0.541 0.918-7.67 1.013-8.955 0.097-1.311 0.078-1.058 0.020-1.785-0.084-1.047-0.711-1.532-1.358-1.532v0z"></path>
<path fill="rgb(0, 0, 0)" d="M3.047 2.306c-0.182-0.105-0.443-0.209-0.664-0.162-0.349 0.073-0.646 0.393-0.729 0.708-0.107 0.403 0.030 1.932 0.499 2.106 0.363 0.135 1.118 0.014 1.417-0.234 0.309-0.257 0.225-0.687 0.147-1.049-0.094-0.439-0.271-1.137-0.669-1.369zM3.444 4.598c-0.254 0.223-0.901 0.324-1.214 0.197-0.404-0.164-0.498-1.555-0.411-1.921 0.111-0.468 0.703-0.731 1.109-0.477 0.344 0.215 0.523 0.856 0.609 1.258 0.071 0.332 0.168 0.712-0.093 0.943z"></path>
<path fill="rgb(0, 0, 0)" d="M10.333 1.787c-0.141-0.155-0.358-0.331-0.583-0.353-0.355-0.035-0.736 0.181-0.913 0.456-0.226 0.353-0.566 1.85-0.174 2.156 0.304 0.237 1.061 0.349 1.423 0.202 0.374-0.152 0.426-0.586 0.463-0.956 0.046-0.447 0.092-1.165-0.216-1.504zM10.005 4.090c-0.31 0.136-0.957 0.039-1.217-0.176-0.334-0.278 0.005-1.631 0.2-1.954 0.249-0.412 0.895-0.485 1.204-0.122 0.262 0.308 0.234 0.973 0.193 1.381-0.035 0.337-0.060 0.729-0.38 0.87z"></path>
<path fill="rgb(0, 0, 0)" d="M8.675 25.257v-1.477h-4.943v-2.051h4.943v-1.477l5.357 2.503z"></path>
</svg>
