<?xml version="1.0" encoding="utf-8"?>
<!-- Generated by IcoMoon.io -->
<!DOCTYPE svg PUBLIC "-//W3C//DTD SVG 1.1//EN" "http://www.w3.org/Graphics/SVG/1.1/DTD/svg11.dtd">
<svg version="1.1" xmlns="http://www.w3.org/2000/svg" xmlns:xlink="http://www.w3.org/1999/xlink" width="23" height="32" viewBox="0 0 23 32">
<path fill="rgb(0, 0, 0)" d="M9.002 1.791c0.381-0.516 0.989-0.824 1.627-0.824 0.663 0 1.275 0.331 1.635 0.885 0.367 0.565 0.497 1.546 0.539 2.635 0.383-0.473 0.613-1.072 0.613-1.724 0-1.526-1.254-2.763-2.802-2.763s-2.802 1.237-2.802 2.763c0 0.634 0.217 1.217 0.58 1.683 0.043-1.13 0.181-2.075 0.61-2.656z"></path>
<path fill="rgb(0, 0, 0)" d="M2.319 15.657c-0.196-0.405-0.445-0.741-0.727-1.108-0.251-0.327-0.805-1.165-0.516-1.88 0.11-0.27 0.379-0.615 1.037-0.721 0.162-0.026 0.325-0.039 0.486-0.039 1.074 0 2.109 0.6 3.002 1.717 0.002-0.036 0.003-0.073 0.003-0.11 0-1.526-1.254-2.763-2.802-2.763s-2.802 1.237-2.802 2.763c0 1.443 1.121 2.626 2.551 2.752-0.072-0.217-0.141-0.423-0.232-0.611z"></path>
<path fill="rgb(255, 255, 255)" d="M22.775 19.173c-0.245-1.058-1.008-1.298-1.712-1.989-0.461-0.452-1.216-1.236-1.922-1.18-0.372 0.030-0.474-0.465-0.704-0.744-0.25-0.302-0.566-0.618-0.952-0.737-0.357-0.11-0.52 0.115-0.649-0.231-0.166-0.445-0.299-0.901-0.467-1.346-0.3-0.791-0.939-1.374-1.904-1.21-0.784 0.133-1.146 0.793-1.596 1.575-0.246-0.406-0.399-1.314-0.421-1.782-0.031-0.654-0.135-4.597-0.135-5.925 0-1.16-0.030-2.793-0.477-3.481-0.565-0.869-1.812-0.863-2.421-0.037-0.558 0.756-0.531 2.593-0.531 3.815 0 1.589 0 2.683 0 4.134 0 1.208-0.042 2.421-0.041 3.627 0 0.747-0.049 1.056-0.119 2.142-0.010 0.088-0.019 0.177-0.031 0.265-0.051 0.376-0.124 0.751-0.224 1.117-0.079 0.273-0.167 0.49-0.252 0.549-0.17 0.048-0.407-0.254-0.529-0.412-0.269-0.346-0.482-0.725-0.774-1.056-0.295-0.335-0.644-0.597-0.853-0.998-0.72-1.371-2.039-3.121-3.864-2.827-1.125 0.181-0.64 1.227-0.198 1.802 0.3 0.39 0.566 0.75 0.781 1.195 0.224 0.462 0.315 0.97 0.551 1.427 0.463 0.902 1.187 1.721 1.787 2.538 0.588 0.801 1.087 1.631 1.578 2.492 0.341 0.597 0.819 1.14 1.277 1.682 0.718 1.066 1.655 2.033 2.327 3.078 0.532 0.828 1.109 1.721 1.109 2.697 0 0.42 0 2.207 0 2.207 0 0.47 0.386 0.855 0.862 0.855h7.657c0.476 0 0.866-0.384 0.866-0.855 0 0 0-0.697 0-0.735 0-1.99-0.11-2.325 1.007-5.457 0.672-1.889 1.439-4.185 0.975-6.195z"></path>
<path fill="rgb(0, 0, 0)" d="M3.119 14.227c-0.063-0.114-0.441-0.692-0.567-0.863-0.119-0.161-0.28-0.335-0.529-0.382-0.171-0.033-0.393-0.020-0.515 0.040 0.029 0.059 0.050 0.428 0.118 0.599 0.055 0.138 0.449 0.725 0.546 0.853 0.092 0.123 0.191 0.238 0.262 0.369 0.143 0.263 0.473 0.494 0.772 0.276 0.048-0.035 0.096-0.096 0.115-0.159 0.069-0.226-0.099-0.547-0.203-0.733zM3.142 14.954c-0.083 0.113-0.27 0.116-0.34 0.050-0.295-0.278-0.589-0.771-0.818-1.107-0.105-0.153-0.521-0.772-0.090-0.773 0.14 0 0.331 0.107 0.449 0.266 0.126 0.171 0.232 0.293 0.362 0.492 0.071 0.109 0.574 0.886 0.438 1.072z"></path>
<path fill="rgb(0, 0, 0)" d="M10.613 1.655c0.221 0 0.563 0.016 0.621 0.269 0.14 0.087 0.262 0.207 0.357 0.353 0.432 0.664 0.432 2.531 0.432 3.328 0 1.311 0.104 5.284 0.135 5.938 0.024 0.504 0.186 1.461 0.46 1.915l0.254 0.421 0.277-0.482c0.425-0.739 0.732-1.273 1.362-1.38 0.092-0.016 0.183-0.024 0.269-0.024 0.798 0 1.166 0.66 1.316 1.053 0.084 0.224 0.162 0.457 0.237 0.682 0.073 0.217 0.147 0.443 0.23 0.663 0.098 0.262 0.267 0.39 0.515 0.39 0.029 0 0.059-0.002 0.092-0.004 0.025-0.001 0.053-0.003 0.082-0.003 0.053 0 0.098 0.006 0.145 0.021 0.338 0.104 0.627 0.418 0.815 0.645 0.054 0.066 0.105 0.157 0.158 0.253 0.139 0.252 0.331 0.597 0.738 0.597 0.018 0 0.036-0.001 0.055-0.002 0.017-0.001 0.033-0.002 0.050-0.002 0.529 0 1.183 0.644 1.574 1.029l0.071 0.070c0.216 0.211 0.43 0.377 0.637 0.538 0.473 0.368 0.847 0.658 0.998 1.312 0.431 1.861-0.241 4.003-0.967 6.038-1.036 2.907-1.034 3.452-1.025 5.070 0.001 0.15 0.002 0.31 0.002 0.482v0.735c0 0.314-0.259 0.57-0.578 0.57h-7.657c-0.316 0-0.573-0.256-0.573-0.57v-2.207c0-1.056-0.611-2.005-1.148-2.843l-0.005-0.008c-0.36-0.56-0.798-1.103-1.222-1.629-0.38-0.47-0.773-0.957-1.108-1.454l-0.009-0.013-0.010-0.012-0.132-0.156c-0.403-0.476-0.82-0.967-1.115-1.484-0.46-0.806-0.972-1.669-1.596-2.519-0.166-0.226-0.344-0.456-0.516-0.678-0.454-0.585-0.923-1.19-1.248-1.822-0.112-0.218-0.19-0.453-0.272-0.701-0.078-0.237-0.16-0.482-0.276-0.72-0.228-0.471-0.514-0.857-0.811-1.244-0.332-0.432-0.501-0.889-0.41-1.112 0.048-0.119 0.191-0.199 0.425-0.236 0.119-0.019 0.239-0.029 0.357-0.029 1.553 0 2.674 1.695 3.205 2.705 0.164 0.314 0.395 0.544 0.618 0.768 0.097 0.097 0.188 0.188 0.274 0.286 0.161 0.182 0.297 0.381 0.44 0.591 0.101 0.148 0.206 0.302 0.322 0.451 0.198 0.256 0.434 0.529 0.721 0.529 0.040 0 0.079-0.006 0.117-0.016l0.049-0.014 0.041-0.029c0.098-0.070 0.218-0.207 0.363-0.707 0.1-0.364 0.178-0.753 0.232-1.154 0.009-0.069 0.017-0.138 0.025-0.207l0.007-0.064 0.001-0.007 0-0.007c0.022-0.342 0.042-0.603 0.059-0.833 0.037-0.485 0.061-0.805 0.060-1.327-0.001-0.61 0.010-1.234 0.020-1.837 0.010-0.587 0.020-1.193 0.020-1.791v-4.298c-0.001-1.129-0.003-2.835 0.476-3.484 0.070-0.094 0.15-0.177 0.239-0.246 0.057-0.044 0.117-0.083 0.18-0.116-0.007-0.205 0.346-0.234 0.546-0.234zM10.628 1.469c-0.454 0-0.912 0.208-1.214 0.617-0.558 0.756-0.531 2.593-0.531 3.815 0 1.589 0 2.683 0 4.134 0 1.208-0.042 2.421-0.041 3.627 0 0.747-0.049 1.055-0.119 2.142-0.010 0.088-0.019 0.177-0.031 0.265-0.051 0.376-0.124 0.751-0.224 1.117-0.079 0.273-0.167 0.49-0.252 0.549-0.012 0.004-0.025 0.005-0.037 0.005-0.166 0-0.379-0.271-0.492-0.417-0.269-0.346-0.482-0.725-0.774-1.056-0.295-0.335-0.643-0.597-0.853-0.998-0.665-1.267-1.844-2.859-3.461-2.859-0.132 0-0.266 0.010-0.403 0.033-1.125 0.181-0.64 1.227-0.198 1.802 0.3 0.39 0.566 0.75 0.781 1.195 0.224 0.462 0.315 0.97 0.551 1.427 0.463 0.902 1.187 1.721 1.787 2.538 0.588 0.801 1.087 1.632 1.578 2.492 0.341 0.597 0.819 1.14 1.277 1.682 0.718 1.066 1.655 2.033 2.327 3.078 0.532 0.828 1.108 1.721 1.108 2.697 0 0.42 0 2.207 0 2.207 0 0.47 0.386 0.855 0.862 0.855h7.657c0.476 0 0.866-0.384 0.866-0.855 0 0 0-0.697 0-0.735 0-1.99-0.11-2.325 1.007-5.457 0.673-1.889 1.441-4.186 0.976-6.195-0.245-1.058-1.008-1.298-1.712-1.989-0.445-0.436-1.165-1.183-1.849-1.183-0.024 0-0.049 0.001-0.073 0.003-0.011 0.001-0.021 0.001-0.032 0.001-0.346 0-0.449-0.474-0.672-0.745-0.25-0.302-0.566-0.618-0.952-0.737-0.088-0.027-0.164-0.034-0.231-0.034s-0.123 0.007-0.174 0.007c-0.104 0-0.178-0.029-0.244-0.204-0.166-0.445-0.299-0.901-0.467-1.346-0.265-0.701-0.798-1.238-1.586-1.238-0.102 0-0.208 0.009-0.318 0.028-0.784 0.133-1.146 0.793-1.596 1.575-0.246-0.406-0.399-1.314-0.421-1.782-0.031-0.654-0.135-4.597-0.135-5.925 0-1.16-0.030-2.793-0.477-3.481-0.285-0.438-0.744-0.654-1.207-0.654v0z"></path>
<path fill="rgb(0, 0, 0)" d="M11.31 1.779c-0.165-0.148-0.411-0.311-0.65-0.31-0.377 0-0.754 0.267-0.91 0.574-0.2 0.393-0.397 2.002 0.049 2.282 0.345 0.217 1.152 0.256 1.516 0.064 0.376-0.199 0.384-0.66 0.384-1.052-0-0.474-0.029-1.234-0.389-1.558zM11.212 4.232c-0.312 0.176-1.002 0.14-1.297-0.058-0.381-0.256-0.17-1.713 0.001-2.072 0.218-0.459 0.888-0.603 1.251-0.254 0.308 0.297 0.351 0.997 0.351 1.431 0 0.358 0.016 0.772-0.306 0.954z"></path>
<path fill="rgb(0, 0, 0)" d="M20.384 24.595c-0.832 2.126-3.094 3.221-5.413 2.776-1.3-0.25-2.403-0.989-3.114-2.034l-0.94 0.389 0.532-3.149 2.864 1.742-1.15 0.497c0.511 0.644 1.23 1.123 2.059 1.283 1.591 0.306 3.187-0.451 3.811-1.883l0.075-0.104 1.384 0.266-0.109 0.217z"></path>
<path fill="rgb(0, 0, 0)" d="M20.314 22.706l-2.841-1.602 1.090-0.447c-0.511-0.644-1.237-1.087-2.067-1.246-1.591-0.306-3.2 0.52-3.824 1.952l-0.102 0.244-1.384-0.266 0.138-0.367c0.833-2.127 3.125-3.374 5.442-2.928 1.301 0.25 2.408 0.969 3.118 2.014l0.985-0.43-0.555 3.076z"></path>
</svg>
