<?xml version="1.0" encoding="utf-8"?>
<!-- Generated by IcoMoon.io -->
<!DOCTYPE svg PUBLIC "-//W3C//DTD SVG 1.1//EN" "http://www.w3.org/Graphics/SVG/1.1/DTD/svg11.dtd">
<svg version="1.1" xmlns="http://www.w3.org/2000/svg" xmlns:xlink="http://www.w3.org/1999/xlink" width="16" height="32" viewBox="0 0 16 32">
<path fill="rgb(255, 255, 255)" d="M15.715 19.119c-0.238-1.029-0.981-1.263-1.666-1.935-0.448-0.44-1.184-1.203-1.87-1.148-0.362 0.029-0.461-0.452-0.685-0.723-0.243-0.294-0.55-0.601-0.926-0.717-0.347-0.107-0.522 0.117-0.632-0.225-0.112-0.35-0.226-0.741-0.225-0.79 0.008-0.556 0.943-7.878 1.041-9.198 0.1-1.346 0.080-1.087 0.021-1.833-0.167-2.104-2.472-1.996-2.881-0.28-0.18 0.757-0.314 1.408-0.395 1.915-0.225 1.42-0.586 5.232-0.924 7.439-0.029 0.191-0.176 1.426-0.567 1.226-0.257-0.132-0.296-0.704-0.357-0.945-0.213-0.838-1.035-4.921-1.272-6.096-0.075-0.371-0.224-1.186-0.428-2.084-0.331-1.459-1.025-2.192-2.039-2.005-0.609 0.112-1.127 0.812-1.122 1.799 0.004 0.901 0.129 1.421 0.265 2.258 0.125 0.767 1.062 5.701 1.226 6.868 0.124 0.889-0.436 1.641-0.927 2.025-0.372 0.29-0.554 0.733-0.632 1.183-0.156 0.896-0.178 1.116-0.36 2.362-0.135 0.925-0.184 2.256 0.023 3.179 0.436 1.944 2.146 3.381 3.193 5.009 0.518 0.805 1.079 1.675 1.079 2.625 0 0.409 0 2.147 0 2.147 0 0.458 0.375 0.831 0.839 0.831h7.45c0.464 0 0.843-0.374 0.843-0.831 0 0 0-0.678 0-0.715 0-1.937-0.106-2.262 0.98-5.31 0.655-1.839 1.402-4.073 0.949-6.028z"></path>
<path fill="rgb(0, 0, 0)" d="M9.429 1.129c0.227 0 0.588 0.117 0.616 0.378 0.229 0.205 0.405 0.546 0.447 1.065 0.010 0.125 0.019 0.222 0.026 0.303 0.035 0.388 0.035 0.388-0.046 1.488-0.049 0.656-0.307 2.811-0.556 4.894-0.3 2.506-0.482 4.048-0.486 4.319-0.001 0.085 0.079 0.381 0.238 0.878 0.085 0.266 0.247 0.395 0.496 0.395 0.030 0 0.062-0.002 0.097-0.004 0.030-0.002 0.058-0.004 0.086-0.004 0.051 0 0.093 0.006 0.137 0.020 0.329 0.101 0.61 0.407 0.793 0.627 0.052 0.064 0.102 0.153 0.154 0.246 0.136 0.245 0.321 0.58 0.718 0.58 0.017 0 0.036-0.001 0.054-0.002 0.016-0.001 0.032-0.002 0.048-0.002 0.515 0 1.152 0.627 1.532 1.002l0.070 0.068c0.209 0.205 0.418 0.367 0.619 0.524 0.46 0.358 0.824 0.64 0.971 1.277 0.419 1.811-0.235 3.895-0.941 5.874-1.008 2.828-1.005 3.359-0.997 4.933 0.001 0.146 0.002 0.302 0.002 0.469v0.715c0 0.306-0.252 0.554-0.562 0.554h-7.45c-0.308 0-0.558-0.249-0.558-0.554v-2.147c0-1.027-0.594-1.951-1.117-2.766l-0.005-0.007c-0.351-0.545-0.777-1.073-1.19-1.584-0.83-1.027-1.687-2.090-1.966-3.336-0.196-0.875-0.151-2.177-0.019-3.079 0.046-0.311 0.081-0.558 0.111-0.768 0.091-0.63 0.132-0.918 0.248-1.587 0.080-0.46 0.258-0.8 0.53-1.012 0.588-0.46 1.168-1.3 1.031-2.28-0.105-0.748-0.515-2.977-0.845-4.767-0.181-0.982-0.337-1.83-0.382-2.107-0.026-0.16-0.052-0.309-0.076-0.45-0.102-0.591-0.182-1.058-0.186-1.765-0.002-0.492 0.134-0.881 0.331-1.144 0.029-0.248 0.386-0.494 0.586-0.531 0.086-0.016 0.164-0.006 0.244-0.006 0.142 0 0.32 0.079 0.372 0.205 0.606 0.244 0.916 1.050 1.074 1.744 0.153 0.676 0.277 1.312 0.358 1.732 0.027 0.138 0.050 0.255 0.068 0.345l0.051 0.253c0.28 1.385 1.023 5.063 1.224 5.856 0.011 0.043 0.022 0.107 0.035 0.175 0.059 0.33 0.141 0.782 0.466 0.948 0.069 0.035 0.14 0.053 0.213 0.053 0.483 0 0.648-0.691 0.755-1.436l0.007-0.047c0.183-1.195 0.374-2.872 0.542-4.352 0.143-1.253 0.278-2.436 0.381-3.086 0.080-0.506 0.212-1.144 0.39-1.894 0.111-0.465 0.371-0.77 0.667-0.934 0.061-0.253 0.417-0.27 0.596-0.27zM9.378 0.977c-0.635 0-1.287 0.454-1.487 1.293-0.18 0.757-0.314 1.408-0.395 1.915-0.225 1.42-0.586 5.232-0.924 7.439-0.027 0.177-0.155 1.248-0.483 1.248-0.027 0-0.055-0.007-0.084-0.022-0.257-0.132-0.296-0.704-0.357-0.945-0.213-0.838-1.035-4.921-1.272-6.096-0.075-0.371-0.224-1.186-0.428-2.084-0.297-1.309-0.887-2.034-1.737-2.034-0.098 0-0.198 0.009-0.303 0.029-0.609 0.112-1.127 0.812-1.122 1.799 0.004 0.901 0.129 1.421 0.265 2.258 0.125 0.767 1.062 5.701 1.226 6.868 0.124 0.889-0.436 1.641-0.927 2.025-0.372 0.29-0.554 0.733-0.632 1.183-0.156 0.896-0.178 1.116-0.36 2.362-0.135 0.925-0.184 2.256 0.023 3.179 0.436 1.944 2.146 3.381 3.193 5.009 0.518 0.805 1.079 1.675 1.079 2.625 0 0.409 0 2.147 0 2.147 0 0.458 0.375 0.831 0.839 0.831h7.45c0.464 0 0.843-0.374 0.843-0.831 0 0 0-0.678 0-0.715 0-1.937-0.106-2.262 0.98-5.31 0.655-1.838 1.402-4.073 0.949-6.028-0.238-1.029-0.981-1.263-1.666-1.935-0.433-0.424-1.134-1.15-1.799-1.15-0.024 0-0.048 0.001-0.071 0.003-0.010 0.001-0.021 0.001-0.031 0.001-0.337 0-0.436-0.461-0.654-0.725-0.243-0.294-0.55-0.601-0.926-0.717-0.083-0.025-0.156-0.032-0.221-0.032-0.070 0-0.13 0.008-0.183 0.008-0.101 0-0.173-0.029-0.228-0.201-0.112-0.35-0.226-0.741-0.225-0.79 0.008-0.556 0.943-7.878 1.041-9.198 0.1-1.346 0.080-1.087 0.021-1.833-0.086-1.076-0.73-1.574-1.395-1.574v0z"></path>
<path fill="rgb(0, 0, 0)" d="M2.633 1.879c-0.187-0.108-0.455-0.214-0.682-0.166-0.358 0.075-0.663 0.404-0.749 0.727-0.11 0.415 0.031 1.984 0.512 2.163 0.373 0.138 1.149 0.015 1.456-0.24 0.318-0.264 0.231-0.705 0.151-1.078-0.097-0.451-0.279-1.168-0.688-1.406zM3.041 4.233c-0.261 0.229-0.925 0.333-1.247 0.202-0.415-0.169-0.512-1.597-0.422-1.973 0.114-0.481 0.722-0.75 1.139-0.49 0.354 0.221 0.537 0.879 0.626 1.292 0.073 0.341 0.173 0.732-0.096 0.969z"></path>
<path fill="rgb(0, 0, 0)" d="M10.116 1.346c-0.144-0.159-0.368-0.34-0.599-0.363-0.365-0.036-0.756 0.186-0.938 0.468-0.232 0.362-0.582 1.899-0.179 2.214 0.312 0.244 1.090 0.359 1.461 0.208 0.384-0.156 0.437-0.602 0.476-0.982 0.047-0.459 0.094-1.197-0.222-1.545zM9.779 3.711c-0.319 0.14-0.984 0.039-1.25-0.181-0.343-0.285 0.005-1.675 0.206-2.007 0.257-0.423 0.92-0.498 1.236-0.125 0.269 0.317 0.241 0.999 0.198 1.418-0.036 0.347-0.061 0.749-0.391 0.894z"></path>
<path fill="rgb(0, 0, 0)" d="M7.409 2.158c0.234-0.983 1.044-1.67 1.97-1.67 0.86 0 1.777 0.626 1.888 2.024 0.010 0.122 0.018 0.215 0.025 0.295 0.017 0.183 0.026 0.298 0.025 0.447 0.174-0.313 0.273-0.672 0.273-1.053 0-1.213-1-2.2-2.23-2.2s-2.23 0.987-2.23 2.2c0 0.24 0.040 0.472 0.113 0.689 0.051-0.232 0.106-0.475 0.167-0.732z"></path>
<path fill="rgb(0, 0, 0)" d="M0.292 3.519c-0.006-1.176 0.622-2.114 1.527-2.281 0.133-0.025 0.266-0.037 0.393-0.037 0.606 0 1.678 0.296 2.177 2.235 0.046-0.176 0.071-0.362 0.071-0.553 0-1.213-1-2.2-2.23-2.2s-2.23 0.987-2.23 2.2c0 0.406 0.112 0.785 0.307 1.112-0.009-0.149-0.014-0.306-0.015-0.476z"></path>
</svg>
