<?xml version="1.0" encoding="utf-8"?>
<!-- Generated by IcoMoon.io -->
<!DOCTYPE svg PUBLIC "-//W3C//DTD SVG 1.1//EN" "http://www.w3.org/Graphics/SVG/1.1/DTD/svg11.dtd">
<svg version="1.1" xmlns="http://www.w3.org/2000/svg" xmlns:xlink="http://www.w3.org/1999/xlink" width="16" height="32" viewBox="0 0 16 32">
<path fill="rgb(255, 255, 255)" d="M15.54 18.729c-0.238-1.029-0.981-1.263-1.666-1.935-0.448-0.44-1.184-1.203-1.87-1.148-0.362 0.029-0.461-0.452-0.685-0.723-0.243-0.294-0.55-0.601-0.926-0.717-0.347-0.107-0.506 0.111-0.632-0.225-0.162-0.433-0.291-0.877-0.455-1.31-0.291-0.77-0.914-1.337-1.853-1.177-0.763 0.129-1.115 0.772-1.553 1.533-0.239-0.395-0.388-1.279-0.409-1.734-0.030-0.636-0.131-4.473-0.131-5.765 0-1.129-0.029-2.718-0.464-3.387-0.55-0.846-1.762-0.84-2.355-0.036-0.543 0.736-0.516 2.522-0.516 3.712 0 1.546 0 2.611 0 4.022 0 1.176-0.041 2.355-0.040 3.529 0 0.734-0.316 0.527-0.807 0.91-0.372 0.29-0.554 0.733-0.632 1.183-0.156 0.896-0.178 1.116-0.36 2.362-0.135 0.925-0.184 2.256 0.023 3.179 0.436 1.945 2.146 3.381 3.193 5.009 0.518 0.805 1.079 1.675 1.079 2.625 0 0.409 0 2.147 0 2.147 0 0.458 0.375 0.831 0.839 0.831h7.45c0.464 0 0.843-0.374 0.843-0.831 0 0 0-0.678 0-0.715 0-1.937-0.106-2.262 0.98-5.31 0.655-1.838 1.401-4.072 0.949-6.027z"></path>
<path fill="rgb(0, 0, 0)" d="M3.722 1.682c0.192 0 0.422 0.019 0.532 0.23 0.161 0.087 0.299 0.214 0.405 0.377 0.42 0.646 0.42 2.462 0.42 3.238 0 1.279 0.102 5.144 0.131 5.778 0.023 0.49 0.182 1.421 0.448 1.863l0.247 0.409 0.239-0.415 0.031-0.054c0.413-0.719 0.711-1.239 1.325-1.343 0.090-0.015 0.178-0.023 0.262-0.023 0.776 0 1.134 0.642 1.28 1.024 0.082 0.217 0.157 0.443 0.23 0.662 0.071 0.212 0.144 0.432 0.224 0.647 0.096 0.255 0.26 0.38 0.501 0.38 0.028 0 0.057-0.002 0.089-0.004 0.025-0.001 0.051-0.003 0.080-0.003 0.052 0 0.095 0.006 0.141 0.020 0.329 0.101 0.61 0.407 0.793 0.627 0.053 0.064 0.102 0.152 0.154 0.246 0.136 0.245 0.322 0.58 0.719 0.58 0.017 0 0.035-0.001 0.054-0.002 0.016-0.001 0.032-0.002 0.048-0.002 0.515 0 1.152 0.627 1.532 1.002l0.069 0.068c0.209 0.205 0.418 0.367 0.619 0.524 0.46 0.358 0.824 0.64 0.971 1.276 0.419 1.811-0.235 3.895-0.941 5.874-1.008 2.828-1.005 3.359-0.997 4.933 0.001 0.146 0.002 0.302 0.002 0.469v0.715c0 0.306-0.252 0.554-0.562 0.554h-7.45c-0.308 0-0.558-0.249-0.558-0.554v-2.147c0-1.027-0.594-1.951-1.117-2.766l-0.005-0.007c-0.35-0.545-0.777-1.073-1.19-1.584-0.829-1.027-1.687-2.090-1.967-3.336-0.196-0.874-0.151-2.177-0.019-3.079 0.046-0.311 0.081-0.558 0.111-0.768 0.090-0.63 0.132-0.917 0.248-1.587 0.080-0.46 0.258-0.8 0.53-1.012 0.13-0.102 0.245-0.153 0.356-0.202 0.327-0.146 0.558-0.297 0.558-0.926-0.001-0.593 0.010-1.199 0.020-1.785 0.010-0.571 0.020-1.163 0.020-1.744v-4.181c-0.001-1.099-0.003-2.759 0.463-3.389 0.096-0.129 0.212-0.236 0.343-0.316 0.066-0.17 0.391-0.268 0.611-0.268zM3.722 1.503c-0.442 0-0.888 0.202-1.182 0.601-0.543 0.736-0.516 2.522-0.516 3.712 0 1.546 0 2.611 0 4.022 0 1.176-0.041 2.355-0.040 3.529 0 0.734-0.316 0.527-0.807 0.91-0.372 0.29-0.554 0.733-0.632 1.183-0.156 0.896-0.178 1.116-0.36 2.362-0.135 0.925-0.184 2.256 0.023 3.179 0.436 1.944 2.146 3.381 3.193 5.009 0.518 0.805 1.079 1.675 1.079 2.625 0 0.409 0 2.147 0 2.147 0 0.458 0.375 0.831 0.839 0.831h7.45c0.464 0 0.843-0.374 0.843-0.831 0 0 0-0.678 0-0.715 0-1.937-0.106-2.262 0.98-5.31 0.655-1.838 1.402-4.073 0.949-6.028-0.238-1.029-0.981-1.263-1.666-1.935-0.433-0.424-1.134-1.151-1.799-1.151-0.024 0-0.047 0.001-0.071 0.003-0.010 0.001-0.021 0.001-0.031 0.001-0.337 0-0.436-0.461-0.654-0.725-0.243-0.294-0.55-0.601-0.926-0.717-0.086-0.026-0.16-0.033-0.225-0.033s-0.12 0.007-0.169 0.007c-0.101 0-0.174-0.028-0.238-0.199-0.162-0.433-0.291-0.877-0.455-1.31-0.258-0.682-0.776-1.204-1.543-1.205-0.099 0-0.203 0.009-0.31 0.027-0.763 0.129-1.115 0.772-1.553 1.533-0.239-0.395-0.388-1.279-0.409-1.734-0.030-0.636-0.131-4.473-0.131-5.765 0-1.129-0.029-2.718-0.464-3.387-0.277-0.426-0.723-0.636-1.173-0.636v0z"></path>
<path fill="rgb(0, 0, 0)" d="M4.354 1.804c-0.16-0.144-0.4-0.302-0.632-0.302-0.367 0-0.734 0.26-0.885 0.558-0.194 0.383-0.386 1.948 0.047 2.221 0.336 0.212 1.121 0.249 1.475 0.062 0.366-0.194 0.374-0.643 0.374-1.024-0-0.461-0.028-1.2-0.378-1.516zM4.259 4.191c-0.303 0.171-0.975 0.137-1.262-0.057-0.371-0.249-0.165-1.666 0.001-2.016 0.212-0.447 0.864-0.587 1.217-0.247 0.3 0.289 0.341 0.97 0.341 1.392-0 0.348 0.015 0.751-0.298 0.928z"></path>
<path fill="rgb(0, 0, 0)" d="M2.139 1.816c0.37-0.502 0.962-0.802 1.583-0.802 0.646 0 1.24 0.322 1.591 0.862s0.479 1.468 0.522 2.504c0.379-0.462 0.607-1.050 0.607-1.691 0-1.485-1.22-2.689-2.726-2.689s-2.726 1.204-2.726 2.689c0 0.614 0.209 1.179 0.56 1.632 0.046-1.064 0.184-1.953 0.59-2.504z"></path>
<path fill="rgb(0, 0, 0)" d="M8.238 25.059v-1.517h-5.076v-2.107h5.076v-1.516l5.501 2.57z"></path>
</svg>
