<?xml version="1.0" encoding="utf-8"?>
<!-- Generated by IcoMoon.io -->
<!DOCTYPE svg PUBLIC "-//W3C//DTD SVG 1.1//EN" "http://www.w3.org/Graphics/SVG/1.1/DTD/svg11.dtd">
<svg version="1.1" xmlns="http://www.w3.org/2000/svg" xmlns:xlink="http://www.w3.org/1999/xlink" width="16" height="32" viewBox="0 0 16 32">
<path fill="rgb(0, 0, 0)" d="M11.514 5.543c0.078-0.425 0.202-0.887 0.379-1.413 0.312-0.925 0.858-1.393 1.624-1.393 0.117 0 0.241 0.011 0.367 0.034 1.528 0.274 1.467 1.753 1.444 2.309-0.002 0.043-0.003 0.084-0.005 0.12-0.007 0.268-0.063 0.753-0.151 1.376 0.689-0.473 1.141-1.259 1.141-2.15 0-1.446-1.188-2.618-2.654-2.618s-2.654 1.172-2.654 2.618c0 0.54 0.165 1.040 0.449 1.457 0.025-0.134 0.046-0.249 0.062-0.339z"></path>
<path fill="rgb(0, 0, 0)" d="M6.238 4.132c-0.008-0.501-0.016-0.974 0.139-1.626 0.229-0.962 0.983-1.609 1.876-1.609 0.82 0 1.729 0.605 1.91 1.956 0.083 0.62 0.112 0.956 0.121 1.391 0.359-0.447 0.575-1.011 0.575-1.626 0-1.446-1.188-2.618-2.654-2.618s-2.654 1.172-2.654 2.618c0 0.679 0.262 1.297 0.691 1.762-0.001-0.084-0.002-0.167-0.003-0.248z"></path>
<path fill="rgb(0, 0, 0)" d="M1.021 6.013c-0.080-0.48-0.143-0.938-0.146-1.571-0.006-1.145 0.605-2.059 1.486-2.221 0.13-0.024 0.259-0.036 0.383-0.036 0.608 0 1.697 0.306 2.162 2.353 0.045 0.197 0.087 0.39 0.126 0.575 0.176-0.35 0.276-0.745 0.276-1.162 0-1.446-1.188-2.618-2.654-2.618s-2.654 1.172-2.654 2.618c-0 0.838 0.4 1.583 1.020 2.062z"></path>
<path fill="rgb(255, 255, 255)" d="M15.961 19.283c-0.168-0.914-0.494-1.322-0.866-2.215-0.296-0.711-0.864-1.119-1.487-1.559-0.129-0.091-0.246-0.184-0.281-0.288-0.091-0.271 0.072-1.047 0.126-1.369 0.092-0.547 1.354-7.379 1.388-8.663 0.014-0.518 0.163-1.733-1.043-1.949-0.767-0.137-1.185 0.267-1.446 1.041-0.146 0.435-0.28 0.897-0.363 1.348-0.223 1.212-1.244 6.949-1.375 7.584-0.042 0.203-0.198 1.265-0.463 1.262-0.108-0.008-0.106-0.214-0.105-0.235 0.007-0.542-0.241-7.235-0.241-9.559 0-0.683-0.016-0.984-0.12-1.765-0.273-2.037-2.439-1.971-2.837-0.301-0.176 0.737-0.123 1.215-0.123 1.875 0 1.4 0.105 5.346 0.105 7.723 0 0.337-0.009 1.508-0.391 1.312-0.25-0.128-0.288-0.686-0.348-0.92-0.207-0.816-1.007-4.792-1.239-5.935-0.073-0.361-0.218-1.155-0.417-2.029-0.322-1.421-0.998-2.135-1.986-1.952-0.593 0.11-1.097 0.791-1.093 1.751 0.004 0.877 0.126 1.383 0.258 2.198 0.121 0.747 1.034 5.551 1.194 6.688 0.121 0.866-0.425 1.598-0.902 1.971-0.362 0.283-0.54 0.714-0.616 1.152-0.152 0.873-0.174 1.087-0.351 2.3-0.132 0.901-0.18 2.196 0.022 3.095 0.425 1.894 2.090 3.292 3.109 4.877 0.504 0.784 1.050 1.631 1.050 2.555 0 0.398 0 2.091 0 2.091 0 0.446 0.366 0.81 0.817 0.81h7.254c0.451 0 0.821-0.364 0.821-0.81 0 0 0-0.66 0-0.696 0-1.886-0.103-2.203 0.954-5.17 0.509-1.428 1.073-3.101 1.058-4.685 0.027-0.14 0.007-1.145-0.064-1.532z"></path>
<path fill="rgb(0, 0, 0)" d="M8.253 1.373v0.143c0.178 0 0.506 0.131 0.556 0.302 0.281 0.19 0.525 0.546 0.603 1.132 0.104 0.774 0.119 1.065 0.119 1.73 0 1.474 0.098 4.669 0.17 7.002 0.041 1.319 0.073 2.361 0.070 2.554-0.005 0.355 0.182 0.495 0.359 0.508l0.008 0h0.008l0.004 0h0.002c0.388 0 0.549-0.484 0.71-1.375 0.008-0.044 0.014-0.079 0.019-0.103 0.086-0.414 0.547-2.98 0.917-5.042 0.204-1.138 0.381-2.121 0.459-2.548 0.071-0.389 0.187-0.818 0.353-1.311 0.238-0.706 0.541-0.868 0.82-0.89-0.021-0.087 0.062-0.107 0.089-0.107 0.072 0 0.256-0.050 0.338-0.036 0.18 0.032 0.387 0.231 0.336 0.341 0.394 0.282 0.4 0.828 0.378 1.375-0.002 0.048-0.004 0.091-0.005 0.132-0.028 1.070-0.963 6.276-1.27 7.986-0.060 0.335-0.1 0.556-0.114 0.64-0.008 0.045-0.017 0.099-0.028 0.159-0.099 0.549-0.18 1.065-0.088 1.34 0.063 0.185 0.23 0.315 0.381 0.422 0.578 0.408 1.124 0.794 1.393 1.442 0.121 0.292 0.24 0.536 0.344 0.752 0.222 0.459 0.398 0.821 0.505 1.408 0.066 0.359 0.085 1.303 0.065 1.437l-0.005 0.025 0 0.025c0.015 1.498-0.507 3.091-1.042 4.593-0.981 2.754-0.979 3.27-0.971 4.803 0.001 0.142 0.002 0.294 0.002 0.457v0.696c0 0.297-0.246 0.54-0.547 0.54h-7.254c-0.3 0-0.543-0.242-0.543-0.54v-2.090c0-1-0.578-1.899-1.088-2.693l-0.005-0.008c-0.341-0.531-0.756-1.045-1.158-1.543-0.808-1-1.642-2.035-1.915-3.248-0.191-0.851-0.147-2.119-0.019-2.998 0.044-0.304 0.079-0.545 0.108-0.75 0.088-0.612 0.128-0.892 0.241-1.542 0.078-0.447 0.251-0.779 0.516-0.986 0.573-0.447 1.137-1.266 1.003-2.22-0.102-0.73-0.502-2.903-0.824-4.649-0.175-0.953-0.327-1.776-0.371-2.044-0.025-0.155-0.050-0.3-0.074-0.438-0.099-0.576-0.177-1.030-0.181-1.719-0.002-0.506 0.146-0.9 0.356-1.156 0.003-0.188 0.308-0.492 0.49-0.525 0.084-0.016 0.284 0.008 0.362 0.008 0.158 0 0.39 0.143 0.336 0.259 0.556 0.262 0.846 1.020 0.995 1.675 0.15 0.66 0.27 1.28 0.35 1.691 0.026 0.133 0.048 0.245 0.065 0.332l0.054 0.267c0.297 1.47 0.993 4.913 1.188 5.681 0.010 0.041 0.022 0.104 0.034 0.171 0.058 0.321 0.137 0.761 0.453 0.923 0.068 0.035 0.137 0.052 0.207 0.052 0.513 0 0.583-0.771 0.583-1.604 0-1.348-0.033-3.182-0.063-4.801-0.023-1.243-0.042-2.317-0.042-2.922 0-0.13-0.002-0.252-0.004-0.371-0.008-0.473-0.014-0.882 0.12-1.444 0.090-0.376 0.278-0.643 0.501-0.811-0.009-0.221 0.428-0.349 0.639-0.349l-0-0.143zM8.254 1.373c-0.606 0-1.213 0.433-1.406 1.241-0.176 0.737-0.123 1.215-0.123 1.875 0 1.4 0.105 5.346 0.105 7.723 0 0.311-0.008 1.334-0.31 1.334-0.025 0-0.052-0.007-0.081-0.022-0.25-0.128-0.288-0.686-0.347-0.92-0.207-0.816-1.007-4.792-1.239-5.935-0.073-0.361-0.218-1.155-0.417-2.029-0.29-1.275-0.863-1.981-1.691-1.981-0.095 0-0.193 0.009-0.295 0.028-0.593 0.11-1.097 0.791-1.093 1.751 0.004 0.877 0.126 1.383 0.258 2.198 0.121 0.747 1.034 5.551 1.194 6.688 0.121 0.866-0.425 1.598-0.902 1.971-0.362 0.283-0.54 0.714-0.616 1.151-0.152 0.873-0.174 1.087-0.351 2.3-0.132 0.901-0.18 2.196 0.022 3.095 0.425 1.894 2.090 3.292 3.109 4.877 0.504 0.784 1.050 1.631 1.050 2.555 0 0.398 0 2.091 0 2.091 0 0.446 0.366 0.81 0.817 0.81h7.254c0.451 0 0.821-0.364 0.821-0.81 0 0 0-0.66 0-0.696 0-1.886-0.104-2.203 0.954-5.17 0.509-1.428 1.073-3.101 1.058-4.685 0.026-0.141 0.006-1.146-0.065-1.533-0.168-0.914-0.494-1.322-0.866-2.215-0.296-0.711-0.864-1.119-1.487-1.559-0.129-0.091-0.246-0.184-0.281-0.288-0.091-0.271 0.072-1.047 0.126-1.369 0.092-0.547 1.354-7.379 1.388-8.663 0.014-0.518 0.163-1.733-1.043-1.949-0.099-0.018-0.193-0.027-0.281-0.027-0.592 0-0.939 0.394-1.165 1.067-0.146 0.435-0.28 0.897-0.363 1.348-0.223 1.212-1.244 6.949-1.375 7.584-0.042 0.203-0.197 1.262-0.461 1.262h-0.002c-0.108-0.008-0.106-0.214-0.105-0.235 0.007-0.542-0.241-7.235-0.241-9.559 0-0.683-0.016-0.984-0.12-1.765-0.141-1.050-0.786-1.541-1.431-1.541v0z"></path>
<path fill="rgb(0, 0, 0)" d="M8.862 1.658c-0.158-0.138-0.394-0.289-0.62-0.285-0.357 0.005-0.71 0.263-0.854 0.556-0.183 0.376-0.348 1.902 0.078 2.161 0.33 0.201 1.095 0.227 1.437 0.040 0.354-0.193 0.355-0.631 0.349-1.002-0.007-0.449-0.044-1.168-0.39-1.47zM8.805 3.983c-0.293 0.171-0.947 0.147-1.229-0.037-0.364-0.238-0.185-1.62-0.028-1.963 0.2-0.438 0.833-0.583 1.182-0.257 0.296 0.277 0.346 0.939 0.352 1.35 0.005 0.339 0.025 0.732-0.276 0.908z"></path>
<path fill="rgb(0, 0, 0)" d="M14.329 3.626c-0.134-0.161-0.245-0.348-0.469-0.38-0.353-0.051-0.648 0.147-0.837 0.413-0.242 0.341-0.654 1.631-0.276 1.955 0.293 0.251 0.85 0.398 1.219 0.268 0.38-0.135 0.453-0.566 0.508-0.933 0.067-0.444 0.147-0.969-0.144-1.322zM13.892 5.721c-0.317 0.122-0.765-0.006-1.014-0.232-0.321-0.293 0.082-1.438 0.293-1.752 0.269-0.4 0.724-0.443 1.015-0.066 0.247 0.32 0.188 0.792 0.127 1.198-0.051 0.336-0.094 0.726-0.421 0.852z"></path>
<path fill="rgb(0, 0, 0)" d="M3.183 2.844c-0.181-0.107-0.44-0.214-0.662-0.17-0.35 0.069-0.651 0.385-0.739 0.699-0.112 0.402 0.005 1.932 0.47 2.112 0.361 0.14 1.118 0.029 1.421-0.215 0.313-0.253 0.234-0.683 0.161-1.047-0.089-0.441-0.256-1.142-0.651-1.378zM3.55 5.141c-0.257 0.22-0.905 0.312-1.216 0.181-0.402-0.169-0.477-1.561-0.386-1.926 0.117-0.466 0.713-0.721 1.115-0.462 0.341 0.22 0.512 0.863 0.593 1.266 0.066 0.333 0.159 0.715-0.106 0.942z"></path>
<path fill="rgb(0, 0, 0)" d="M11.467 25.15v-1.047h-1.96v1.933h1.061l-1.882 3.050-1.883-3.050h1.062v-1.933h-1.96v1.047l-3.093-1.857 3.093-1.856v1.047h1.96v-1.933h-1.062l1.883-3.050 1.882 3.050h-1.061v1.933h1.96v-1.047l3.093 1.856z"></path>
</svg>
