<?xml version="1.0" encoding="utf-8"?>
<!-- Generated by IcoMoon.io -->
<!DOCTYPE svg PUBLIC "-//W3C//DTD SVG 1.1//EN" "http://www.w3.org/Graphics/SVG/1.1/DTD/svg11.dtd">
<svg version="1.1" xmlns="http://www.w3.org/2000/svg" xmlns:xlink="http://www.w3.org/1999/xlink" width="16" height="32" viewBox="0 0 16 32">
<path fill="rgb(255, 255, 255)" d="M15.972 18.746c-0.245-1.058-1.008-1.298-1.713-1.989-0.46-0.452-1.217-1.236-1.922-1.18-0.372 0.030-0.474-0.465-0.704-0.744-0.25-0.302-0.566-0.618-0.952-0.737-0.357-0.11-0.52 0.115-0.649-0.232-0.167-0.445-0.299-0.901-0.467-1.346-0.3-0.791-0.939-1.374-1.904-1.21-0.784 0.133-1.146 0.793-1.596 1.575-0.245-0.406-0.399-1.314-0.42-1.782-0.031-0.654-0.135-4.597-0.135-5.925 0-1.16-0.030-2.793-0.477-3.481-0.565-0.869-1.811-0.863-2.421-0.037-0.558 0.756-0.531 2.593-0.531 3.815 0 1.589 0 2.683 0 4.134 0 1.208-0.042 2.421-0.041 3.627 0 0.754-0.325 0.542-0.829 0.936-0.382 0.298-0.569 0.754-0.65 1.215-0.161 0.921-0.183 1.147-0.37 2.427-0.139 0.951-0.19 2.318 0.024 3.267 0.448 1.998 2.206 3.475 3.282 5.148 0.532 0.828 1.108 1.721 1.108 2.697 0 0.42 0 2.207 0 2.207 0 0.47 0.386 0.855 0.862 0.855h7.657c0.476 0 0.866-0.384 0.866-0.855 0 0 0-0.697 0-0.735 0-1.99-0.11-2.325 1.007-5.457 0.673-1.889 1.44-4.185 0.975-6.195z"></path>
<path fill="rgb(0, 0, 0)" d="M3.826 1.226c0.197 0 0.433 0.019 0.546 0.236 0.165 0.089 0.307 0.22 0.416 0.387 0.431 0.664 0.431 2.531 0.431 3.328 0 1.314 0.104 5.286 0.135 5.938 0.024 0.504 0.186 1.46 0.461 1.915l0.254 0.421 0.245-0.426 0.032-0.056c0.425-0.739 0.731-1.273 1.362-1.38 0.092-0.016 0.183-0.024 0.269-0.024 0.798 0 1.166 0.66 1.315 1.053 0.084 0.223 0.162 0.455 0.237 0.68 0.073 0.218 0.148 0.444 0.231 0.665 0.098 0.262 0.267 0.39 0.515 0.39 0.029 0 0.059-0.002 0.092-0.004 0.025-0.001 0.053-0.003 0.082-0.003 0.053 0 0.098 0.006 0.145 0.021 0.338 0.104 0.627 0.418 0.815 0.645 0.054 0.066 0.105 0.157 0.158 0.253 0.139 0.252 0.331 0.597 0.738 0.597 0.018 0 0.036-0.001 0.055-0.002 0.017-0.001 0.033-0.002 0.050-0.002 0.529 0 1.184 0.644 1.574 1.029l0.071 0.070c0.215 0.211 0.429 0.377 0.636 0.538 0.473 0.368 0.847 0.658 0.998 1.312 0.431 1.861-0.242 4.003-0.967 6.038-1.036 2.907-1.034 3.452-1.025 5.070 0.001 0.15 0.002 0.31 0.002 0.482v0.735c0 0.314-0.259 0.57-0.578 0.57h-7.657c-0.316 0-0.573-0.256-0.573-0.57v-2.207c0-1.056-0.61-2.005-1.148-2.843l-0.005-0.008c-0.36-0.56-0.798-1.103-1.222-1.628-0.853-1.056-1.734-2.148-2.021-3.429-0.202-0.899-0.155-2.237-0.020-3.165 0.047-0.32 0.084-0.574 0.114-0.789 0.093-0.648 0.136-0.943 0.255-1.631 0.082-0.472 0.265-0.822 0.544-1.040 0.134-0.104 0.252-0.157 0.366-0.208 0.336-0.15 0.574-0.305 0.573-0.952-0.001-0.609 0.010-1.232 0.020-1.835 0.010-0.587 0.020-1.195 0.020-1.792v-4.298c-0.001-1.129-0.003-2.835 0.476-3.484 0.098-0.133 0.218-0.242 0.352-0.324 0.067-0.175 0.401-0.276 0.628-0.276zM3.825 1.042c-0.454 0-0.913 0.208-1.214 0.617-0.558 0.756-0.531 2.593-0.531 3.815 0 1.589 0 2.683 0 4.134 0 1.208-0.042 2.421-0.041 3.627 0 0.754-0.325 0.542-0.829 0.936-0.382 0.298-0.569 0.754-0.65 1.215-0.161 0.921-0.183 1.147-0.37 2.427-0.139 0.951-0.19 2.318 0.024 3.267 0.448 1.998 2.206 3.475 3.282 5.148 0.532 0.828 1.109 1.721 1.109 2.697 0 0.42 0 2.207 0 2.207 0 0.47 0.386 0.855 0.862 0.855h7.656c0.476 0 0.866-0.384 0.866-0.855 0 0 0-0.697 0-0.735 0-1.99-0.11-2.325 1.007-5.457 0.673-1.889 1.44-4.186 0.976-6.195-0.245-1.058-1.008-1.298-1.713-1.989-0.445-0.436-1.165-1.183-1.849-1.183-0.024 0-0.049 0.001-0.073 0.003-0.011 0.001-0.021 0.001-0.032 0.001-0.346 0-0.449-0.474-0.672-0.745-0.25-0.302-0.566-0.618-0.952-0.737-0.088-0.027-0.164-0.034-0.231-0.034s-0.123 0.007-0.174 0.007c-0.104 0-0.178-0.029-0.244-0.204-0.167-0.445-0.299-0.901-0.467-1.346-0.265-0.701-0.798-1.238-1.586-1.238-0.102 0-0.208 0.009-0.319 0.028-0.784 0.133-1.146 0.793-1.596 1.575-0.245-0.406-0.399-1.314-0.42-1.782-0.031-0.654-0.135-4.597-0.135-5.925 0-1.16-0.030-2.793-0.477-3.481-0.285-0.438-0.744-0.654-1.206-0.654v0z"></path>
<path fill="rgb(0, 0, 0)" d="M4.475 1.352c-0.164-0.148-0.411-0.311-0.65-0.31-0.377 0-0.754 0.267-0.91 0.574-0.199 0.394-0.397 2.002 0.049 2.282 0.345 0.217 1.152 0.256 1.516 0.064 0.376-0.199 0.384-0.66 0.384-1.052 0-0.474-0.028-1.234-0.388-1.558zM4.378 3.805c-0.312 0.176-1.002 0.141-1.297-0.058-0.381-0.256-0.17-1.713 0.001-2.072 0.218-0.459 0.888-0.603 1.251-0.254 0.308 0.297 0.35 0.997 0.35 1.431 0 0.358 0.017 0.772-0.305 0.954z"></path>
<path fill="rgb(0, 0, 0)" d="M2.199 1.364c0.381-0.516 0.989-0.824 1.627-0.824 0.663 0 1.275 0.331 1.635 0.885 0.258 0.398 0.399 1.003 0.474 1.706 0.113-0.268 0.176-0.562 0.176-0.871 0-1.248-1.027-2.261-2.292-2.261s-2.292 1.012-2.292 2.261c0 0.27 0.048 0.528 0.136 0.768 0.084-0.689 0.241-1.263 0.537-1.664z"></path>
</svg>
