<?xml version="1.0" encoding="utf-8"?>
<!-- Generated by IcoMoon.io -->
<!DOCTYPE svg PUBLIC "-//W3C//DTD SVG 1.1//EN" "http://www.w3.org/Graphics/SVG/1.1/DTD/svg11.dtd">
<svg version="1.1" xmlns="http://www.w3.org/2000/svg" xmlns:xlink="http://www.w3.org/1999/xlink" width="19" height="32" viewBox="0 0 19 32">
<path fill="rgb(0, 0, 0)" d="M11.514 5.544c0.078-0.425 0.202-0.887 0.38-1.413 0.312-0.925 0.857-1.393 1.623-1.393 0.117 0 0.241 0.011 0.367 0.034 1.528 0.273 1.467 1.753 1.443 2.31-0.002 0.043-0.004 0.084-0.004 0.12-0.007 0.267-0.063 0.753-0.151 1.376 0.689-0.473 1.14-1.259 1.14-2.15 0-1.446-1.188-2.618-2.654-2.618s-2.654 1.172-2.654 2.618c0 0.539 0.166 1.040 0.449 1.457 0.024-0.135 0.046-0.251 0.062-0.34z"></path>
<path fill="rgb(0, 0, 0)" d="M6.238 4.132c-0.008-0.501-0.016-0.974 0.139-1.626 0.229-0.962 0.983-1.608 1.876-1.608 0.82 0 1.729 0.605 1.91 1.956 0.083 0.621 0.112 0.956 0.121 1.391 0.359-0.447 0.575-1.011 0.575-1.626 0-1.446-1.188-2.618-2.654-2.618s-2.654 1.172-2.654 2.618c0 0.679 0.262 1.297 0.691 1.762-0-0.084-0.002-0.167-0.003-0.248z"></path>
<path fill="rgb(0, 0, 0)" d="M1.021 6.013c-0.080-0.479-0.142-0.938-0.146-1.571-0.006-1.145 0.606-2.059 1.486-2.221 0.13-0.024 0.259-0.036 0.383-0.036 0.608 0 1.697 0.306 2.162 2.352 0.045 0.198 0.086 0.39 0.126 0.575 0.176-0.35 0.276-0.744 0.276-1.162 0-1.446-1.188-2.618-2.654-2.618s-2.654 1.172-2.654 2.618c0 0.838 0.4 1.583 1.021 2.062z"></path>
<path fill="rgb(0, 0, 0)" d="M16.932 6.481c-1.226 0-2.22 0.98-2.22 2.19 0 0.301 0.062 0.587 0.173 0.848 0.396-1.352 0.859-2.152 1.375-2.375 0.21-0.090 0.438-0.138 0.66-0.138 0.398 0 0.771 0.147 1.079 0.426 0.777 0.703 0.428 2.105 0.241 2.857l-0.014 0.057c-0.009 0.037-0.020 0.080-0.032 0.126 0.579-0.395 0.958-1.054 0.958-1.801 0-1.21-0.994-2.19-2.22-2.19z"></path>
<path fill="rgb(255, 255, 255)" d="M17.672 7.786c-0.394-0.357-0.861-0.357-1.218-0.202-0.493 0.213-0.927 1.423-1.158 2.254-0.253 0.911-0.688 2.589-0.881 3.231-0.287 0.953-0.878 2.641-0.989 2.213-0.072-0.276-0.027-1.105 0.027-1.428 0.001-0.008 0.067-0.379 0.067-0.379 0.281-1.571 1.29-7.138 1.32-8.284 0.014-0.518 0.163-1.733-1.043-1.949-0.767-0.137-1.185 0.267-1.446 1.041-0.146 0.435-0.28 0.897-0.363 1.348-0.223 1.211-1.244 6.949-1.375 7.584-0.042 0.203-0.198 1.265-0.463 1.261-0.108-0.008-0.106-0.214-0.105-0.235 0.008-0.541-0.241-7.235-0.241-9.559 0-0.683-0.016-0.984-0.12-1.765-0.273-2.037-2.439-1.971-2.837-0.301-0.176 0.737-0.123 1.215-0.123 1.875 0 1.4 0.105 5.346 0.105 7.723 0 0.337-0.009 1.508-0.391 1.312-0.25-0.128-0.288-0.685-0.347-0.92-0.207-0.816-1.007-4.791-1.239-5.936-0.073-0.361-0.218-1.155-0.417-2.028-0.322-1.421-0.998-2.135-1.986-1.953-0.593 0.11-1.097 0.791-1.093 1.751 0.004 0.877 0.126 1.384 0.258 2.198 0.121 0.747 1.034 5.551 1.194 6.687 0.121 0.866-0.425 1.598-0.902 1.971-0.362 0.283-0.54 0.714-0.616 1.152-0.152 0.873-0.174 1.087-0.351 2.3-0.132 0.901-0.18 2.196 0.022 3.095 0.425 1.894 2.090 3.292 3.109 4.877 0.504 0.784 1.050 1.631 1.050 2.555 0 0.398 0 2.091 0 2.091 0 0.445 0.366 0.81 0.817 0.81h7.254c0.451 0 0.821-0.364 0.821-0.81 0 0 0-0.66 0-0.696 0-1.886-0.104-2.203 0.954-5.17 0.509-1.428 1.073-3.101 1.058-4.685 0.019-0.102 0.013-0.652-0.018-1.097v0c0-0.001 0-0.002 0-0.003-0.002-0.025-0.003-0.050-0.005-0.074-0.017-1.174 0.039-2.362 0.206-3.524 0.062-0.428 1.307-4.909 1.549-5.884 0.146-0.587 0.5-1.92-0.085-2.45z"></path>
<path fill="rgb(0, 0, 0)" d="M8.252 1.373v0.16c0.559-0.004 0.507 0.103 0.583 0.303 0.27 0.194 0.501 0.546 0.577 1.114 0.104 0.775 0.119 1.064 0.119 1.73 0 1.475 0.098 4.669 0.17 7.002 0.041 1.319 0.073 2.36 0.070 2.554-0.005 0.355 0.182 0.495 0.359 0.508l0.008 0.001h0.014c0.388 0 0.549-0.483 0.71-1.375 0.008-0.044 0.014-0.079 0.019-0.102 0.086-0.414 0.547-2.98 0.917-5.042 0.204-1.138 0.381-2.121 0.459-2.547 0.071-0.39 0.187-0.818 0.353-1.311 0.224-0.666 0.508-0.839 0.774-0.874 0.016-0.029 0.073-0.162 0.115-0.162 0.072 0 0.235 0.015 0.317 0.030 0.152 0.027 0.326 0.235 0.312 0.283 0.445 0.271 0.466 0.838 0.442 1.409-0.002 0.048-0.004 0.092-0.005 0.132-0.028 1.071-0.964 6.279-1.271 7.991l-0.046 0.254c0 0-0.066 0.375-0.068 0.381-0.051 0.301-0.112 1.195-0.022 1.539 0.052 0.2 0.198 0.271 0.317 0.271 0.216 0 0.368-0.144 0.698-0.996 0.191-0.494 0.384-1.088 0.501-1.478 0.116-0.386 0.319-1.144 0.515-1.876 0.137-0.511 0.266-0.993 0.368-1.361 0.359-1.292 0.764-1.975 1.004-2.079 0.064-0.027 0.13-0.048 0.197-0.060 0.040-0.071 0.152-0.19 0.205-0.19 0.208 0 0.367 0.062 0.535 0.214 0.015 0.014 0.017 0.219 0.030 0.235 0.383 0.442 0.098 1.588-0.025 2.086l-0.014 0.058c-0.094 0.38-0.346 1.313-0.613 2.301-0.527 1.952-0.903 3.352-0.941 3.609-0.157 1.086-0.227 2.286-0.209 3.566v0.009l0.001 0.009c0.002 0.023 0.003 0.046 0.005 0.070v0.005l0 0.003c0.032 0.458 0.032 0.947 0.021 1.027l-0.005 0.025 0 0.026c0.015 1.498-0.507 3.090-1.042 4.593-0.981 2.754-0.979 3.27-0.971 4.803 0.001 0.142 0.002 0.294 0.002 0.457v0.696c0 0.298-0.246 0.54-0.547 0.54h-7.254c-0.3 0-0.543-0.242-0.543-0.54v-2.091c0-1-0.578-1.899-1.088-2.693l-0.005-0.007c-0.341-0.531-0.756-1.045-1.158-1.543-0.808-1-1.642-2.035-1.915-3.248-0.191-0.851-0.147-2.119-0.019-2.998 0.044-0.304 0.079-0.545 0.109-0.75 0.088-0.612 0.128-0.892 0.241-1.543 0.078-0.447 0.251-0.779 0.516-0.986 0.573-0.447 1.137-1.266 1.003-2.22-0.102-0.73-0.502-2.903-0.824-4.649-0.175-0.953-0.327-1.776-0.371-2.045-0.025-0.156-0.050-0.3-0.074-0.438-0.099-0.576-0.177-1.030-0.181-1.719-0.002-0.52 0.154-0.921 0.373-1.176-0.056-0.164 0.317-0.421 0.491-0.453 0.084-0.016 0.328-0.025 0.406-0.025 0.17 0 0.352 0.19 0.335 0.293 0.538 0.273 0.786 0.977 0.933 1.622 0.15 0.66 0.27 1.281 0.35 1.691 0.026 0.133 0.048 0.245 0.065 0.332l0.054 0.268c0.297 1.47 0.993 4.913 1.188 5.681 0.010 0.041 0.022 0.104 0.034 0.171 0.058 0.321 0.137 0.761 0.453 0.923 0.068 0.035 0.137 0.052 0.207 0.052 0.513 0 0.583-0.771 0.583-1.604 0-1.348-0.033-3.182-0.063-4.801-0.023-1.243-0.042-2.316-0.042-2.922 0-0.129-0.002-0.251-0.004-0.37-0.008-0.473-0.014-0.882 0.12-1.444 0.091-0.385 0.286-0.655 0.516-0.823-0.002-0.198 0.432-0.311 0.637-0.311l-0.015-0.169zM8.252 1.373c-0.606 0-1.213 0.433-1.406 1.241-0.176 0.737-0.123 1.215-0.123 1.875 0 1.4 0.105 5.346 0.105 7.724 0 0.311-0.008 1.334-0.31 1.334-0.025 0-0.052-0.007-0.081-0.022-0.25-0.128-0.288-0.685-0.347-0.92-0.207-0.816-1.007-4.792-1.239-5.935-0.073-0.361-0.218-1.155-0.417-2.029-0.29-1.275-0.863-1.981-1.691-1.981-0.095 0-0.193 0.009-0.295 0.028-0.593 0.11-1.097 0.791-1.093 1.751 0.004 0.877 0.126 1.384 0.258 2.198 0.121 0.747 1.034 5.551 1.194 6.688 0.121 0.866-0.425 1.598-0.902 1.971-0.362 0.283-0.54 0.714-0.616 1.151-0.152 0.873-0.174 1.087-0.351 2.3-0.132 0.901-0.18 2.196 0.022 3.095 0.425 1.893 2.090 3.291 3.109 4.877 0.504 0.784 1.050 1.631 1.050 2.555 0 0.398 0 2.091 0 2.091 0 0.445 0.366 0.81 0.817 0.81h7.254c0.451 0 0.821-0.364 0.821-0.81 0 0 0-0.66 0-0.696 0-1.886-0.104-2.203 0.954-5.17 0.509-1.428 1.073-3.101 1.058-4.685 0.019-0.102 0.013-0.653-0.018-1.097 0-0.001 0-0.002 0-0.003-0.002-0.025-0.003-0.050-0.005-0.074-0.017-1.175 0.039-2.362 0.206-3.524 0.062-0.428 1.307-4.909 1.549-5.885 0.146-0.589 0.5-1.922-0.085-2.451-0.238-0.215-0.502-0.301-0.753-0.301-0.165 0-0.324 0.037-0.466 0.099-0.493 0.213-0.927 1.423-1.158 2.255-0.253 0.911-0.688 2.588-0.881 3.231-0.255 0.849-0.753 2.281-0.937 2.281-0.023 0-0.040-0.021-0.052-0.068-0.072-0.276-0.027-1.105 0.027-1.428 0.001-0.008 0.067-0.379 0.067-0.379 0.281-1.571 1.29-7.138 1.32-8.284 0.014-0.518 0.163-1.733-1.043-1.949-0.099-0.018-0.193-0.026-0.281-0.026-0.592 0-0.939 0.394-1.165 1.067-0.146 0.435-0.28 0.897-0.363 1.348-0.223 1.211-1.244 6.949-1.375 7.584-0.042 0.203-0.197 1.261-0.461 1.261h-0.002c-0.108-0.008-0.106-0.214-0.105-0.235 0.008-0.541-0.241-7.235-0.241-9.559 0-0.682-0.016-0.984-0.12-1.765-0.141-1.050-0.785-1.541-1.431-1.541v0z"></path>
<path fill="rgb(0, 0, 0)" d="M8.871 1.653c-0.158-0.138-0.394-0.289-0.62-0.285-0.357 0.006-0.71 0.263-0.854 0.556-0.183 0.375-0.347 1.902 0.078 2.161 0.33 0.201 1.095 0.227 1.437 0.040 0.354-0.193 0.355-0.631 0.349-1.002-0.007-0.449-0.044-1.167-0.39-1.47zM8.814 3.978c-0.293 0.171-0.947 0.147-1.229-0.038-0.364-0.238-0.185-1.62-0.028-1.963 0.2-0.438 0.833-0.583 1.182-0.257 0.296 0.277 0.346 0.939 0.352 1.35 0.005 0.339 0.025 0.731-0.276 0.908z"></path>
<path fill="rgb(0, 0, 0)" d="M14.297 3.621c-0.134-0.161-0.245-0.348-0.469-0.38-0.353-0.051-0.648 0.147-0.837 0.413-0.243 0.342-0.654 1.631-0.276 1.955 0.293 0.251 0.85 0.398 1.219 0.268 0.38-0.135 0.453-0.566 0.509-0.933 0.066-0.444 0.147-0.969-0.144-1.322zM13.86 5.716c-0.317 0.122-0.765-0.006-1.014-0.233-0.321-0.292 0.082-1.438 0.293-1.752 0.269-0.4 0.724-0.443 1.015-0.066 0.247 0.32 0.188 0.792 0.127 1.198-0.051 0.335-0.094 0.726-0.421 0.852z"></path>
<path fill="rgb(0, 0, 0)" d="M17.58 7.882c-0.124-0.169-0.17-0.325-0.392-0.37-0.35-0.071-0.507 0.108-0.712 0.364-0.262 0.327-0.663 1.299-0.305 1.643 0.278 0.267 0.586 0.339 0.973 0.208 0.178-0.060 0.336-0.234 0.407-0.514 0.11-0.435 0.3-0.962 0.029-1.331zM17.033 9.588c-0.333 0.065-0.528-0.006-0.724-0.187-0.272-0.251 0.107-1.121 0.31-1.44 0.181-0.286 0.569-0.449 0.819-0.101 0.236 0.328 0.051 0.864-0.042 1.264-0.005 0.021-0.105 0.412-0.362 0.463z"></path>
<path fill="rgb(0, 0, 0)" d="M3.191 2.839c-0.18-0.107-0.44-0.214-0.662-0.17-0.35 0.069-0.651 0.385-0.739 0.698-0.112 0.402 0.005 1.933 0.471 2.112 0.361 0.139 1.118 0.029 1.421-0.216 0.312-0.253 0.234-0.683 0.161-1.047-0.089-0.441-0.257-1.141-0.652-1.377zM3.559 5.136c-0.257 0.22-0.905 0.312-1.216 0.181-0.402-0.169-0.477-1.561-0.386-1.926 0.117-0.466 0.713-0.722 1.115-0.462 0.341 0.22 0.512 0.863 0.593 1.266 0.066 0.333 0.159 0.715-0.106 0.942z"></path>
<path fill="rgb(0, 0, 0)" d="M10.727 25.8v-1.477h-3.69v1.477l-3.989-2.503 3.989-2.502v1.477h3.69v-1.477l3.989 2.502z"></path>
</svg>
