<?xml version="1.0" encoding="utf-8"?>
<!-- Generated by IcoMoon.io -->
<!DOCTYPE svg PUBLIC "-//W3C//DTD SVG 1.1//EN" "http://www.w3.org/Graphics/SVG/1.1/DTD/svg11.dtd">
<svg version="1.1" xmlns="http://www.w3.org/2000/svg" xmlns:xlink="http://www.w3.org/1999/xlink" width="24" height="32" viewBox="0 0 24 32">
<path fill="rgb(255, 255, 255)" d="M23.347 7.89c-0.394-0.357-0.861-0.357-1.219-0.202-0.493 0.213-0.927 1.423-1.158 2.255-0.253 0.911-0.688 2.589-0.881 3.231-0.286 0.953-0.878 2.641-0.989 2.213-0.072-0.277-0.027-1.105 0.027-1.428 0.001-0.008 0.067-0.379 0.067-0.379 0.281-1.571 1.29-7.138 1.32-8.284 0.014-0.518 0.163-1.733-1.043-1.949-0.767-0.138-1.185 0.267-1.446 1.041-0.146 0.435-0.28 0.897-0.363 1.348-0.223 1.211-1.244 6.949-1.375 7.584-0.042 0.203-0.198 1.265-0.463 1.261-0.108-0.008-0.106-0.214-0.105-0.235 0.007-0.541-0.241-7.235-0.241-9.559 0-0.683-0.016-0.984-0.12-1.765-0.273-2.037-2.439-1.971-2.837-0.301-0.176 0.737-0.123 1.215-0.123 1.876 0 1.4 0.105 5.346 0.105 7.723 0 0.337-0.009 1.508-0.39 1.312-0.25-0.128-0.288-0.685-0.348-0.92-0.207-0.816-1.007-4.791-1.239-5.936-0.073-0.361-0.218-1.155-0.416-2.029-0.323-1.421-0.998-2.135-1.986-1.953-0.593 0.11-1.097 0.791-1.093 1.751 0.004 0.877 0.126 1.383 0.258 2.198 0.121 0.747 1.034 5.551 1.193 6.687 0.068 0.483-0.010 1.007 0.014 1.498 0.022 0.428 0.045 0.861-0.032 1.285-0.080 0.438-0.092 0.873-0.225 1.301-0.089 0.285-0.184 0.706-0.425 0.905-0.346 0.284-0.614-0.365-0.732-0.603-0.208-0.421-0.596-0.713-0.878-1.067-0.147-0.185-0.308-0.357-0.438-0.556-0.124-0.19-0.15-0.417-0.257-0.615-0.254-0.468-0.674-0.839-0.994-1.254-0.236-0.307-0.523-0.546-0.86-0.732-0.168-0.093-0.363-0.123-0.545-0.187-0.294-0.103-0.761-0.117-1.078-0.089-0.375 0.032-0.544 0.254-0.469 0.625 0.107 0.524 0.436 0.971 0.725 1.416 0.307 0.472 0.558 0.981 0.747 1.508 0.132 0.37 0.385 0.652 0.547 0.998 0.18 0.384 0.424 0.721 0.659 1.076 0.136 0.204 0.225 0.413 0.382 0.607 0.29 0.359 0.629 0.674 0.917 1.035 0.369 0.463 0.693 0.959 0.989 1.469 0.278 0.481 0.475 0.99 0.76 1.467 0.568 0.949 1.328 1.766 1.991 2.648 0.162 0.215 0.318 0.434 0.464 0.661 0.504 0.784 1.050 1.63 1.050 2.555 0 0.398 0 2.091 0 2.091 0 0.446 0.365 0.81 0.817 0.81h7.254c0.451 0 0.821-0.364 0.821-0.81 0 0 0-0.66 0-0.696 0-1.886-0.103-2.203 0.954-5.17 0.509-1.428 1.073-3.101 1.058-4.685 0.019-0.102 0.013-0.652-0.018-1.097 0-0.001 0-0.002 0-0.003-0.002-0.025-0.003-0.050-0.006-0.074-0.017-1.175 0.039-2.362 0.206-3.524 0.062-0.428 1.307-4.909 1.549-5.884 0.146-0.588 0.5-1.921-0.085-2.451z"></path>
<path fill="rgb(0, 0, 0)" d="M3.188 15.775c-0.034 0.029-0.069 0.055-0.101 0.072-0.222 0.122-0.456-0.168-0.546-0.334-0.068-0.124-0.079-0.252-0.166-0.368-0.091-0.122-0.216-0.216-0.302-0.341-0.080-0.117-0.165-0.233-0.246-0.349-0.076-0.11-0.129-0.235-0.156-0.365-0.026-0.128-0.056-0.235 0.088-0.275 0.228-0.062 0.519-0.070 0.734 0.039 0.294 0.149 0.463 0.5 0.617 0.773 0.063 0.112 0.13 0.219 0.189 0.331 0.053 0.099 0.131 0.201 0.165 0.309 0.036 0.117-0.037 0.243-0.108 0.331-0.042 0.054-0.103 0.121-0.167 0.176z"></path>
<path fill="rgb(255, 255, 255)" d="M23.347 7.783c-0.394-0.357-0.861-0.357-1.219-0.203-0.493 0.213-0.927 1.423-1.158 2.255-0.254 0.911-0.688 2.589-0.881 3.231-0.286 0.953-0.878 2.641-0.989 2.213-0.072-0.276-0.027-1.105 0.027-1.428 0.001-0.008 0.067-0.379 0.067-0.379 0.281-1.571 1.29-7.138 1.32-8.284 0.014-0.518 0.163-1.733-1.042-1.949-0.767-0.137-1.185 0.267-1.446 1.041-0.146 0.435-0.28 0.897-0.363 1.348-0.222 1.211-1.244 6.949-1.375 7.584-0.042 0.203-0.198 1.265-0.463 1.262-0.108-0.008-0.106-0.214-0.105-0.235 0.007-0.541-0.241-7.235-0.241-9.559 0-0.683-0.016-0.984-0.12-1.765-0.273-2.037-2.439-1.971-2.837-0.301-0.176 0.737-0.123 1.215-0.123 1.875 0 1.4 0.105 5.346 0.105 7.723 0 0.337-0.009 1.508-0.39 1.312-0.095-0.049-0.159-0.159-0.206-0.29-0.007-0.034-0.014-0.068-0.021-0.102-0.002 0.004-0.005 0.007-0.008 0.010-0.055-0.195-0.081-0.412-0.113-0.538-0.207-0.817-1.007-4.791-1.239-5.936-0.073-0.361-0.218-1.155-0.417-2.028-0.322-1.421-0.998-2.135-1.986-1.953-0.593 0.109-1.097 0.791-1.093 1.751 0.004 0.877 0.126 1.384 0.258 2.198 0.107 0.656 0.824 4.441 1.105 6.123 0.069 0.33-0.018 1.101-0.018 1.65 0 0.707-0.047 1-0.113 2.029-0.010 0.084-0.018 0.168-0.030 0.251-0.048 0.356-0.117 0.711-0.212 1.059-0.075 0.258-0.158 0.464-0.239 0.521-0.161 0.045-0.386-0.242-0.501-0.39-0.254-0.329-0.456-0.687-0.733-1.001-0.28-0.317-0.61-0.566-0.808-0.945-0.682-1.299-1.932-2.956-3.661-2.678-1.066 0.172-0.606 1.162-0.187 1.706 0.284 0.37 0.536 0.711 0.74 1.132 0.212 0.438 0.299 0.919 0.522 1.353 0.439 0.854 1.125 1.63 1.693 2.404 0.557 0.758 1.030 1.546 1.495 2.36 0.312 0.546 0.745 1.045 1.165 1.541 0.685 1.030 1.592 1.961 2.239 2.968 0.504 0.784 1.050 1.631 1.050 2.555 0 0.399 0 2.091 0 2.091 0 0.445 0.365 0.81 0.817 0.81h7.264c0.451 0 0.821-0.364 0.821-0.81 0 0 0-0.66 0-0.696 0-1.886-0.103-2.203 0.954-5.17 0.52-1.461 1.1-3.178 1.056-4.794 0.007-0.207-0.001-0.631-0.026-0.988 0-0.001 0-0.002 0-0.003-0.002-0.025-0.003-0.050-0.005-0.074-0.017-1.175 0.039-2.362 0.206-3.524 0.062-0.428 1.307-4.909 1.549-5.885 0.146-0.588 0.5-1.921-0.085-2.45z"></path>
<path fill="rgb(0, 0, 0)" d="M3.273 14.968c-0.075-0.135-0.392-0.601-0.619-0.813-0.139-0.13-0.295-0.331-0.53-0.376-0.162-0.031-0.566-0.019-0.681 0.038 0.027 0.056 0.047 0.405 0.112 0.567 0.052 0.131 0.426 0.687 0.517 0.808 0.087 0.116 0.181 0.225 0.248 0.349 0.136 0.249 0.743 0.482 1.025 0.276 0.046-0.033 0.11-0.103 0.129-0.163 0.066-0.214-0.102-0.51-0.201-0.686zM3.325 15.599c-0.058 0.234-0.59 0.158-0.657 0.095-0.28-0.264-0.558-0.731-0.775-1.049-0.099-0.145-0.784-0.801 0.108-0.732 0.132 0.010 0.298 0.114 0.425 0.252 0.135 0.147 0.289 0.305 0.441 0.489 0.078 0.096 0.51 0.733 0.458 0.944z"></path>
<path fill="rgb(0, 0, 0)" d="M17.189 5.543c0.078-0.425 0.202-0.887 0.38-1.413 0.311-0.925 0.858-1.393 1.623-1.393 0.117 0 0.241 0.011 0.367 0.034 1.529 0.273 1.467 1.753 1.444 2.309-0.002 0.043-0.003 0.084-0.005 0.12-0.007 0.267-0.063 0.753-0.151 1.376 0.689-0.473 1.141-1.259 1.141-2.15 0-1.446-1.188-2.618-2.654-2.618s-2.654 1.172-2.654 2.618c0 0.54 0.165 1.040 0.449 1.457 0.025-0.135 0.046-0.251 0.062-0.34z"></path>
<path fill="rgb(0, 0, 0)" d="M11.913 4.132c-0.008-0.501-0.016-0.974 0.139-1.626 0.229-0.962 0.983-1.608 1.876-1.608 0.82 0 1.729 0.605 1.91 1.956 0.083 0.621 0.112 0.957 0.121 1.391 0.359-0.447 0.575-1.011 0.575-1.626 0-1.446-1.188-2.618-2.654-2.618s-2.654 1.172-2.654 2.618c0 0.678 0.262 1.297 0.691 1.762-0.001-0.084-0.002-0.168-0.003-0.247z"></path>
<path fill="rgb(0, 0, 0)" d="M6.696 6.013c-0.080-0.479-0.143-0.938-0.146-1.571-0.006-1.145 0.606-2.059 1.486-2.221 0.13-0.024 0.259-0.036 0.383-0.036 0.608 0 1.697 0.306 2.162 2.353 0.045 0.198 0.086 0.39 0.126 0.575 0.176-0.35 0.276-0.745 0.276-1.162 0-1.446-1.188-2.618-2.654-2.618s-2.654 1.172-2.654 2.618c-0 0.838 0.4 1.583 1.020 2.062z"></path>
<path fill="rgb(0, 0, 0)" d="M22.607 6.481c-1.226 0-2.22 0.98-2.22 2.19 0 0.301 0.061 0.587 0.173 0.848 0.397-1.352 0.859-2.152 1.375-2.375 0.21-0.091 0.438-0.138 0.66-0.138 0.398 0 0.771 0.147 1.079 0.426 0.777 0.703 0.428 2.105 0.241 2.857l-0.014 0.057c-0.009 0.037-0.020 0.080-0.032 0.126 0.579-0.395 0.958-1.054 0.958-1.801 0-1.21-0.993-2.19-2.22-2.19z"></path>
<path fill="rgb(0, 0, 0)" d="M2.196 16.3c-0.186-0.383-0.422-0.702-0.689-1.049-0.238-0.31-0.763-1.104-0.488-1.781 0.104-0.256 0.358-0.583 0.983-0.683 0.153-0.025 0.308-0.037 0.46-0.037 1.018 0 1.998 0.568 2.844 1.626 0.001-0.034 0.003-0.069 0.003-0.104 0-1.446-1.188-2.618-2.654-2.618s-2.654 1.172-2.654 2.618c0 1.367 1.062 2.488 2.417 2.607-0.069-0.206-0.134-0.401-0.22-0.579z"></path>
<path fill="rgb(0, 0, 0)" d="M13.927 1.373l0.088 0.108c0.169 0 0.486 0.174 0.442 0.319 0.292 0.185 0.549 0.545 0.63 1.15 0.103 0.773 0.118 1.064 0.118 1.73 0 1.475 0.098 4.669 0.17 7.002 0.041 1.319 0.073 2.36 0.070 2.554-0.005 0.355 0.182 0.494 0.359 0.508l0.008 0 0.008 0h0.006c0.388 0 0.549-0.483 0.71-1.375 0.008-0.044 0.014-0.079 0.019-0.103 0.086-0.416 0.549-2.993 0.921-5.064 0.203-1.128 0.378-2.102 0.456-2.527 0.072-0.389 0.187-0.818 0.353-1.311 0.222-0.658 0.501-0.834 0.764-0.873 0.013-0.079 0.075-0.142 0.122-0.142 0.072 0 0.212 0.021 0.293 0.036 0.153 0.027 0.358 0.179 0.339 0.256 0.445 0.271 0.466 0.838 0.442 1.409-0.002 0.048-0.004 0.092-0.005 0.132-0.028 1.070-0.963 6.273-1.269 7.983l-0.047 0.261c0 0-0.066 0.375-0.068 0.382-0.051 0.301-0.112 1.195-0.022 1.539 0.052 0.2 0.198 0.271 0.318 0.271 0.216 0 0.368-0.144 0.698-0.996 0.191-0.494 0.384-1.087 0.502-1.478 0.116-0.386 0.318-1.141 0.513-1.872 0.131-0.49 0.266-0.996 0.369-1.364 0.359-1.292 0.763-1.975 1.004-2.079 0.083-0.036 0.172-0.060 0.259-0.070 0.032-0.004 0.153-0.159 0.185-0.159 0.208 0 0.342 0.133 0.511 0.286 0.006 0.005-0.020 0.108-0.014 0.113 0.423 0.42 0.128 1.605 0.002 2.115l-0.015 0.058c-0.094 0.38-0.346 1.313-0.613 2.301-0.527 1.952-0.903 3.352-0.941 3.61-0.157 1.087-0.227 2.286-0.209 3.565v0.008l0.001 0.008 0.005 0.072v0.003c0.025 0.354 0.032 0.766 0.025 0.96v0.016c0.041 1.525-0.492 3.156-1.041 4.697-0.981 2.753-0.979 3.27-0.971 4.803 0.001 0.142 0.002 0.294 0.002 0.457v0.696c0 0.298-0.246 0.54-0.547 0.54h-7.264c-0.3 0-0.543-0.242-0.543-0.54v-2.091c0-1-0.578-1.899-1.088-2.693l-0.005-0.007c-0.341-0.531-0.756-1.046-1.158-1.543-0.373-0.462-0.758-0.939-1.083-1.428l-0.009-0.013-0.010-0.012-0.081-0.096c-0.381-0.45-0.776-0.915-1.055-1.404-0.436-0.763-0.92-1.581-1.512-2.387-0.158-0.214-0.326-0.432-0.49-0.642-0.43-0.554-0.874-1.127-1.181-1.726-0.106-0.207-0.18-0.429-0.258-0.664-0.075-0.225-0.151-0.457-0.261-0.682-0.217-0.447-0.487-0.813-0.769-1.179-0.314-0.409-0.475-0.842-0.389-1.054 0.046-0.113 0.181-0.188 0.402-0.223 0.113-0.018 0.227-0.027 0.338-0.027 1.471 0 2.534 1.606 3.036 2.563 0.156 0.297 0.374 0.516 0.585 0.727 0.091 0.091 0.178 0.178 0.26 0.271 0.152 0.172 0.281 0.361 0.417 0.561 0.096 0.141 0.195 0.286 0.305 0.427 0.188 0.243 0.411 0.501 0.683 0.501 0.037 0 0.074-0.005 0.11-0.015l0.046-0.013 0.039-0.027c0.093-0.066 0.207-0.197 0.344-0.67 0.094-0.345 0.168-0.712 0.22-1.093 0.009-0.065 0.016-0.131 0.024-0.196l0.007-0.061 0.001-0.006 0-0.007c0.021-0.324 0.040-0.571 0.056-0.788 0.035-0.46 0.058-0.764 0.057-1.258 0-0.193 0.011-0.421 0.022-0.642 0.021-0.417 0.041-0.812-0.008-1.056-0.165-0.989-0.48-2.698-0.733-4.071-0.176-0.953-0.327-1.777-0.371-2.046-0.026-0.156-0.050-0.301-0.074-0.439-0.099-0.575-0.177-1.030-0.181-1.718-0.002-0.47 0.125-0.843 0.312-1.099-0.037-0.257 0.335-0.5 0.534-0.537 0.084-0.016 0.373-0.004 0.451-0.004 0.132 0 0.193 0.167 0.181 0.198 0.599 0.231 0.905 1.022 1.060 1.704 0.15 0.658 0.27 1.277 0.349 1.687 0.026 0.134 0.048 0.247 0.066 0.335l0.050 0.246c0.273 1.349 0.996 4.931 1.191 5.702 0.010 0.042 0.022 0.104 0.034 0.17 0.021 0.115 0.044 0.246 0.081 0.375l0.157 0.553 0.075-0.107c0.042 0.042 0.089 0.077 0.14 0.103 0.068 0.035 0.137 0.052 0.207 0.052 0.513 0 0.583-0.771 0.583-1.604 0-1.348-0.033-3.182-0.063-4.801-0.023-1.243-0.042-2.316-0.042-2.922 0-0.129-0.002-0.252-0.004-0.37-0.008-0.473-0.014-0.882 0.12-1.444 0.091-0.382 0.284-0.651 0.511-0.818-0.032-0.158 0.446-0.396 0.652-0.396l-0.025-0.087zM13.927 1.373c-0.606 0-1.213 0.433-1.406 1.241-0.176 0.737-0.123 1.215-0.123 1.875 0 1.4 0.105 5.346 0.105 7.723 0 0.311-0.008 1.334-0.31 1.334-0.025 0-0.052-0.007-0.081-0.022-0.095-0.049-0.159-0.159-0.206-0.29-0.007-0.034-0.014-0.068-0.021-0.102-0.002 0.004-0.005 0.007-0.008 0.010-0.055-0.195-0.081-0.412-0.113-0.538-0.207-0.817-1.007-4.791-1.239-5.936-0.073-0.361-0.218-1.155-0.417-2.028-0.29-1.275-0.863-1.981-1.691-1.981-0.095 0-0.193 0.009-0.295 0.028-0.593 0.109-1.097 0.791-1.093 1.751 0.004 0.877 0.126 1.384 0.258 2.198 0.107 0.656 0.824 4.441 1.105 6.123 0.069 0.33-0.018 1.101-0.018 1.65 0 0.707-0.047 1-0.113 2.029-0.010 0.084-0.018 0.168-0.030 0.251-0.048 0.356-0.117 0.711-0.212 1.059-0.075 0.258-0.158 0.464-0.239 0.521-0.012 0.003-0.024 0.005-0.036 0.005-0.158 0-0.358-0.257-0.466-0.395-0.254-0.329-0.456-0.687-0.733-1.001-0.28-0.317-0.61-0.566-0.808-0.945-0.63-1.201-1.747-2.709-3.279-2.709-0.125 0-0.252 0.010-0.382 0.031-1.066 0.172-0.606 1.162-0.187 1.706 0.284 0.37 0.536 0.711 0.74 1.132 0.212 0.438 0.299 0.919 0.522 1.353 0.439 0.854 1.125 1.63 1.693 2.404 0.557 0.758 1.030 1.546 1.495 2.361 0.312 0.546 0.745 1.045 1.165 1.541 0.685 1.030 1.592 1.961 2.239 2.968 0.504 0.784 1.050 1.631 1.050 2.555 0 0.399 0 2.091 0 2.091 0 0.445 0.365 0.81 0.817 0.81h7.264c0.451 0 0.821-0.364 0.821-0.81 0 0 0-0.66 0-0.696 0-1.886-0.103-2.203 0.954-5.17 0.52-1.461 1.1-3.178 1.056-4.794 0.007-0.207-0.001-0.631-0.026-0.988 0-0.001 0-0.002 0-0.003-0.002-0.025-0.003-0.050-0.005-0.074-0.017-1.175 0.039-2.362 0.206-3.524 0.062-0.428 1.307-4.909 1.549-5.885 0.146-0.589 0.5-1.922-0.085-2.451-0.237-0.216-0.502-0.301-0.752-0.301-0.165 0-0.324 0.037-0.466 0.098-0.493 0.213-0.927 1.423-1.158 2.255-0.254 0.911-0.688 2.589-0.881 3.231-0.255 0.849-0.753 2.281-0.937 2.281-0.023 0-0.040-0.022-0.052-0.069-0.072-0.276-0.027-1.105 0.027-1.428 0.001-0.008 0.067-0.379 0.067-0.379 0.281-1.571 1.29-7.138 1.32-8.284 0.014-0.518 0.163-1.733-1.042-1.949-0.099-0.017-0.193-0.026-0.281-0.026-0.592 0-0.938 0.394-1.165 1.067-0.146 0.435-0.28 0.897-0.363 1.348-0.222 1.211-1.244 6.949-1.375 7.584-0.042 0.203-0.197 1.262-0.461 1.262h-0.002c-0.108-0.008-0.106-0.214-0.105-0.235 0.007-0.541-0.241-7.235-0.241-9.559 0-0.683-0.016-0.984-0.12-1.765-0.14-1.051-0.785-1.542-1.431-1.542v0z"></path>
<path fill="rgb(0, 0, 0)" d="M14.533 1.66c-0.158-0.138-0.394-0.289-0.62-0.285-0.357 0.005-0.71 0.263-0.854 0.556-0.184 0.375-0.348 1.902 0.078 2.161 0.33 0.201 1.095 0.227 1.437 0.040 0.354-0.193 0.354-0.631 0.349-1.002-0.007-0.449-0.044-1.168-0.39-1.47zM14.475 3.985c-0.293 0.171-0.947 0.147-1.23-0.038-0.364-0.238-0.185-1.62-0.028-1.963 0.2-0.438 0.833-0.583 1.181-0.257 0.296 0.277 0.346 0.939 0.352 1.35 0.005 0.34 0.026 0.732-0.276 0.908z"></path>
<path fill="rgb(0, 0, 0)" d="M19.966 3.62c-0.133-0.161-0.245-0.347-0.469-0.38-0.353-0.051-0.648 0.147-0.837 0.413-0.242 0.341-0.654 1.631-0.276 1.955 0.293 0.251 0.85 0.398 1.218 0.268 0.381-0.135 0.453-0.566 0.508-0.933 0.066-0.444 0.147-0.97-0.145-1.323zM19.529 5.714c-0.317 0.122-0.765-0.006-1.014-0.232-0.321-0.293 0.082-1.438 0.293-1.752 0.269-0.4 0.724-0.443 1.015-0.066 0.247 0.32 0.188 0.792 0.127 1.198-0.050 0.335-0.094 0.726-0.421 0.852z"></path>
<path fill="rgb(0, 0, 0)" d="M23.252 7.889c-0.124-0.168-0.17-0.325-0.392-0.37-0.35-0.071-0.507 0.108-0.712 0.364-0.262 0.327-0.663 1.299-0.305 1.643 0.278 0.267 0.586 0.339 0.973 0.208 0.178-0.060 0.336-0.234 0.407-0.514 0.11-0.435 0.3-0.962 0.029-1.331zM22.705 9.595c-0.333 0.065-0.528-0.006-0.724-0.187-0.272-0.251 0.107-1.121 0.31-1.44 0.181-0.286 0.569-0.449 0.819-0.101 0.236 0.328 0.051 0.864-0.042 1.264-0.005 0.022-0.105 0.412-0.362 0.463z"></path>
<path fill="rgb(0, 0, 0)" d="M8.832 2.854c-0.181-0.107-0.44-0.214-0.662-0.17-0.35 0.069-0.651 0.385-0.739 0.699-0.112 0.402 0.005 1.932 0.471 2.112 0.361 0.139 1.118 0.029 1.421-0.215 0.313-0.253 0.234-0.684 0.161-1.047-0.089-0.441-0.257-1.141-0.651-1.378zM9.198 5.152c-0.257 0.22-0.905 0.312-1.216 0.181-0.402-0.169-0.477-1.562-0.386-1.927 0.117-0.466 0.714-0.721 1.115-0.462 0.341 0.22 0.512 0.863 0.593 1.266 0.067 0.333 0.159 0.714-0.106 0.942z"></path>
<path fill="rgb(0, 0, 0)" d="M17.142 25.257v-1.047h-1.96v1.934h1.061l-1.882 3.050-1.883-3.050h1.062v-1.934h-1.96v1.047l-3.093-1.856 3.093-1.857v1.047h1.96v-1.933h-1.062l1.883-3.050 1.882 3.050h-1.061v1.933h1.96v-1.047l3.093 1.857z"></path>
</svg>
